<svg width="66" height="24" viewBox="0 0 66 24" fill="none" xmlns="http://www.w3.org/2000/svg">
    <g clip-path="url(#clip0_525_1824)">
        <path
            d="M11.1637 18.7973L18.6094 11.2765C19.1035 10.7785 19.773 10.4988 20.471 10.4988C21.169 10.4988 21.8385 10.7785 22.3326 11.2765C22.8256 11.7756 23.1025 12.4519 23.1025 13.1569C23.1025 13.862 22.8256 14.5383 22.3326 15.0374L14.887 22.5582C14.3929 23.0562 13.7234 23.3359 13.0254 23.3359C12.3273 23.3359 11.6578 23.0562 11.1637 22.5582C10.6707 22.0591 10.3938 21.3828 10.3938 20.6778C10.3938 19.9727 10.6707 19.2965 11.1637 18.7973ZM0.76987 12.0594C1.26397 12.5571 1.93327 12.8366 2.63104 12.8366C3.32881 12.8366 3.99811 12.5571 4.4922 12.0594L11.9388 4.53758C12.4315 4.0385 12.7082 3.36243 12.7082 2.65761C12.7082 1.95279 12.4315 1.27673 11.9388 0.777647C11.4447 0.279667 10.7752 0 10.0771 0C9.37913 0 8.70962 0.279667 8.21548 0.777647L0.76987 8.29847C0.276871 8.7976 0 9.47387 0 10.1789C0 10.884 0.276871 11.5603 0.76987 12.0594ZM8.75734 14.4871C9.25142 14.9851 9.92099 15.2648 10.6189 15.2648C11.317 15.2648 11.9865 14.9851 12.4806 14.4871L14.3423 12.6067C14.8353 12.1075 15.1122 11.4313 15.1122 10.7262C15.1122 10.0212 14.8353 9.34487 14.3423 8.8458C13.8481 8.3478 13.1786 8.06813 12.4806 8.06813C11.7826 8.06813 11.1131 8.3478 10.6189 8.8458L8.75734 10.7262C8.26432 11.2253 7.98745 11.9016 7.98745 12.6067C7.98745 13.3117 8.26432 13.988 8.75734 14.4871Z"
            fill="white" />
        <path
            d="M42.322 2.84546H44.702V20.7458H42.322V12.6392H33.0567V20.7458H30.6513V2.84546H33.0567V10.5428H42.322V2.84546Z"
            fill="white" />
        <path d="M50.8019 5.27517V2.84546H48.3721V5.27517H50.8019ZM50.7258 20.7448V7.909H48.4482V20.7448H50.7258Z"
            fill="white" />
        <path
            d="M57.2083 7.90804V6.19521C57.2083 5.147 57.7657 4.50802 58.6248 4.50802C59.3267 4.50802 59.7357 4.86005 59.9153 5.27519H61.7535C61.6209 4.52621 61.233 3.84771 60.6571 3.3573C60.0812 2.86689 59.3536 2.59547 58.6003 2.59009C56.398 2.59009 54.9297 4.06921 54.9297 6.29775V7.90804H52.9031V9.85064H54.9288V20.7458H57.2083V9.85064H63.6454V20.7458H65.924V7.90804H57.2083ZM63.5703 2.84548V5.27519H66V2.84548H63.5703Z"
            fill="white" />
    </g>
    <defs>
        <clipPath id="clip0_525_1824">
            <rect width="66" height="24" fill="white" />
        </clipPath>
    </defs>
</svg>