<svg width="238" height="41" viewBox="0 0 238 41" fill="none" xmlns="http://www.w3.org/2000/svg">
<g clip-path="url(#clip0_473_1062)">
<path d="M28.5452 13.1795C28.5452 19.4178 28.4882 26.1814 28.8515 30.4822H28.7446C26.4223 26.153 19.562 17.09 9.52456 2.19313H0V40.2549H7.38741V27.0756C7.38741 20.3262 7.38741 14.9183 7.08109 10.1561H7.18794C9.61004 14.535 22.725 33.9669 26.9922 40.2549H35.9326V2.18604H28.5452V13.1724V13.1795Z" fill="black"/>
<path d="M87.8653 11.8311C77.721 11.8311 72.2214 18.7153 72.2214 26.4156C72.2214 34.116 77.493 41.0002 87.5376 41.0002C97.5822 41.0002 103.36 34.6483 103.36 26.3943C103.36 19.3895 98.3088 11.8311 87.8724 11.8311H87.8653ZM87.8012 35.138C82.729 35.138 80.0291 31.0145 80.0291 26.4156C80.0291 21.8167 82.4654 17.6933 87.7157 17.6933C92.966 17.6933 95.4807 21.916 95.4807 26.5292C95.4807 31.1423 93.0443 35.1451 87.8012 35.1451V35.138Z" fill="black"/>
<path d="M133.728 20.0282C136.685 19.0062 139.591 16.4299 139.591 11.9162C139.591 6.36623 135.517 2.18604 126.683 2.18604H106.423V40.2478H126.555C135.289 40.2478 141.045 36.2734 141.045 28.9776C141.045 23.818 137.355 21.0998 133.736 20.0282H133.728ZM114.33 8.28955H125.052C128.649 8.28955 131.271 9.50315 131.271 12.853C131.271 15.6067 129.518 17.3455 124.931 17.3455H114.323V8.28955H114.33ZM125.344 34.1869H114.33V23.4064H125.301C130.003 23.4064 132.574 25.2091 132.574 28.7434C132.574 33.0372 129.219 34.1869 125.351 34.1869H125.344Z" fill="black"/>
<path d="M171.699 21.8593C171.699 17.2532 169.818 11.8311 158.377 11.8311C147.855 11.8311 145.419 17.232 145.155 20.7237H152.813C153.234 18.8359 154.202 17.1326 158.477 17.1326C163.129 17.1326 164.211 19.2617 164.211 21.7528V22.8103H158.092C149.985 22.8103 143.581 24.8117 143.581 32.0152C143.581 36.3516 146.587 41.0002 154.266 41.0002C159.695 41.0002 162.879 39.3749 164.361 36.8342C164.397 37.6503 164.468 39.4814 164.689 40.2479H171.934C171.862 39.6375 171.699 36.0961 171.699 32.7817V21.8593ZM164.204 28.4383C164.204 32.6043 161.917 35.4573 156.297 35.4573C152.664 35.4573 151.018 33.7256 151.018 31.632C151.018 28.9706 153.162 27.7286 158.227 27.7286C161.59 27.7286 163.492 27.7286 164.197 27.7641V28.4383H164.204Z" fill="black"/>
<path d="M192.215 11.8308C186.637 11.8308 183.987 14.4993 182.733 16.6427C182.698 15.2871 182.605 13.4206 182.498 12.5831H175.025C175.082 14.5916 175.082 17.2246 175.082 19.5596V40.2406H182.776V26.6141C182.776 21.1777 184.977 17.8563 189.601 17.8563C193.932 17.8563 195.328 20.9009 195.328 24.4992V40.2406H203.058V23.2501C203.058 15.9755 198.954 11.8237 192.215 11.8237V11.8308Z" fill="black"/>
<path d="M54.1767 11.8311C44.4669 11.8311 39.1098 18.4952 39.1098 26.4653C39.1098 33.5695 43.3414 41.0002 54.2622 41.0002C62.9818 41.0002 67.078 36.6213 68.6951 31.9727H61.0369C59.8758 33.9811 58.0449 35.2302 54.4118 35.2302C52.296 35.2302 50.1731 34.5418 48.6985 32.9804C47.1526 31.341 46.6397 29.0132 46.6041 26.8272C46.5756 24.5562 46.6326 22.1077 47.9291 20.1489C49.3111 18.0552 51.7403 17.2958 54.1625 17.2958C59.7119 17.2958 61.0512 20.9366 61.2435 23.4206H52.182V28.2538H69.0156C69.0513 27.4802 69.0513 27.0189 69.0513 26.3943C69.0513 19.3327 64.8981 11.8311 54.1767 11.8311Z" fill="black"/>
<path d="M236.746 12.5832H227.585C223.802 16.2666 217.441 22.0933 214.612 24.9321V0H206.954V40.2477H214.612V31.3763L219.236 27.4942L228.205 20.1203L236.753 12.5832H236.746Z" fill="black"/>
<path d="M227.421 26.7134L222.036 31.2555L228.661 40.2476H238L227.421 26.7134Z" fill="black"/>
</g>
<defs>
<clipPath id="clip0_473_1062">
<rect width="238" height="41" fill="white"/>
</clipPath>
</defs>
</svg>
