<svg width="80" height="22" viewBox="0 0 80 22" fill="none" xmlns="http://www.w3.org/2000/svg">
    <g clip-path="url(#clip0_525_1854)">
        <path
            d="M9.70933 10.3673C5.448 12.7473 0 14.3735 0 14.3735L2.144 18.1265C2.144 18.1265 6.264 14.1742 10.432 11.63"
            fill="white" />
        <path d="M10.4294 11.7243L19.328 6.29929L18.808 5.3866L9.70935 10.4616" fill="white" />
        <path
            d="M12.2106 21.4973C12.2106 21.4973 10.88 15.9162 10.7866 10.9973L10.5866 0.5H9.54398L9.34398 11C9.25065 15.9188 7.91998 21.5 7.91998 21.5H12.208L12.2106 21.4973Z"
            fill="white" />
        <path
            d="M9.70667 11.63C13.8747 14.1715 17.9947 18.1265 17.9947 18.1265L20.1387 14.3735C20.1387 14.3735 14.6907 12.7473 10.4293 10.37"
            fill="white" />
        <path
            d="M10.424 10.4643L1.32798 5.38929L0.807983 6.30198L9.70665 11.727M26.016 5.35698V18.2262H27.5813V7.30621L27.3253 5.35698H26.016ZM36.368 11.2612V18.2289H37.9333V11.2612H36.368ZM27.5787 11.7189C27.5787 8.42891 29.472 6.38545 32.5093 6.38545C35.1653 6.38545 36.368 7.94968 36.368 11.2585H37.9333C37.9333 7.0666 36.168 5.06352 32.4933 5.06352C30.3093 5.06352 28.7627 5.76083 27.5813 7.30621V11.7189H27.5787ZM45.848 18.5224C49.7227 18.5224 52.3973 16.0589 52.3973 11.7916C52.3973 7.52429 49.7227 5.06083 45.848 5.06083C41.9733 5.06083 39.28 7.50544 39.28 11.7916C39.28 16.0778 41.9547 18.5224 45.848 18.5224ZM45.848 17.2004C42.9733 17.2004 40.9173 15.122 40.9173 11.7943C40.9173 8.4666 42.9733 6.38814 45.848 6.38814C48.7227 6.38814 50.76 8.44775 50.76 11.7943C50.76 15.1408 48.704 17.2004 45.848 17.2004ZM64.6987 11.1508H66.264C66.2267 7.23352 64.0613 5.06621 60.168 5.06621C56.2747 5.06621 53.8373 7.17968 53.7093 10.5451H55.328C55.456 7.95237 57.2747 6.39083 60.168 6.39083C63.0613 6.39083 64.6613 8.00891 64.6987 11.1535M64.752 11.867H65.152V10.5424H64.752C57.4 10.5424 53.7253 11.3528 53.7253 14.7154C53.7253 17.3081 55.8347 18.5574 59.2747 18.5574C62.7147 18.5574 64.3147 16.8101 64.824 16.1316L64.696 13.4474C64.696 16.0024 61.4747 17.2166 59.3093 17.2166C56.816 17.2166 55.36 16.1504 55.36 14.772C55.36 12.1416 58.9627 11.867 64.7493 11.867M68.0827 2.17737V18.2289H69.648V2.17737H68.0827ZM78.4347 11.2612V18.2289H80V11.2612H78.4347ZM64.6987 11.1508V18.2289H66.264V11.1508H64.6987ZM69.648 11.7189C69.648 8.42891 71.5413 6.38545 74.5787 6.38545C77.2347 6.38545 78.4347 7.94968 78.4347 11.2585H80C80 7.0666 78.2347 5.06352 74.56 5.06352C72.376 5.06352 70.8293 5.76083 69.648 7.30621V11.7189Z"
            fill="white" />
    </g>
    <defs>
        <clipPath id="clip0_525_1854">
            <rect width="80" height="21" fill="white" transform="translate(0 0.5)" />
        </clipPath>
    </defs>
</svg>