<svg width="108" height="27" viewBox="0 0 108 27" fill="none" xmlns="http://www.w3.org/2000/svg">
    <g clip-path="url(#clip0_554_1032)">
        <path
            d="M16.3346 19.272V20.4175C16.3346 20.9734 16.0252 21.2852 15.467 21.2852H1.36762C0.811763 21.2852 0.5 20.9758 0.5 20.4175V19.272C0.5 18.7162 0.809345 18.4044 1.36762 18.4044H15.4694C16.0252 18.4044 16.337 18.7137 16.337 19.272H16.3346ZM15.3727 10.6054L11.6969 8.48356C11.576 8.41348 11.576 8.24189 11.6969 8.17181L15.3727 6.0499C15.7884 5.81063 15.9286 5.27894 15.6893 4.86568L15.1166 3.87481C14.8774 3.45912 14.348 3.31896 13.9324 3.55821L10.2564 5.68013C10.1357 5.75021 9.98578 5.66321 9.98578 5.52545V1.2768C9.98578 0.798278 9.59669 0.40918 9.11817 0.40918H7.97263C7.49411 0.40918 7.10501 0.798278 7.10501 1.2768V5.52304C7.10501 5.6608 6.95517 5.74779 6.83433 5.67771L3.15844 3.55579C2.74276 3.31654 2.21349 3.45912 1.97423 3.87239L1.40145 4.86326C1.16219 5.27894 1.30478 5.80822 1.71805 6.04747L5.39395 8.16939C5.51478 8.23947 5.51478 8.41106 5.39395 8.48115L1.71805 10.603C1.30237 10.8423 1.16219 11.3716 1.40145 11.7873L1.97423 12.7781C2.21349 13.1938 2.74276 13.334 3.15844 13.0948L6.83433 10.9728C6.95517 10.9027 7.10501 10.9898 7.10501 11.1275V15.3737C7.10501 15.8523 7.49411 16.2414 7.97263 16.2414H9.11817C9.59669 16.2414 9.98578 15.8523 9.98578 15.3737V11.1275C9.98578 10.9898 10.1357 10.9027 10.2564 10.9728L13.9324 13.0948C14.348 13.334 14.8774 13.1914 15.1166 12.7781L15.6893 11.7873C15.9286 11.3716 15.786 10.8423 15.3727 10.603V10.6054Z"
            fill="#7379FD" />
        <path
            d="M24.9751 11.1465C25.7315 9.95026 27.2928 9.12134 28.9048 9.12134C32.1988 9.12134 34.8113 11.8547 34.8113 15.3445C34.8113 18.8343 32.2012 21.5676 28.9048 21.5676C27.2928 21.5676 25.7315 20.7387 24.9751 19.5424V26.2102C24.9751 26.3093 24.8953 26.3891 24.7962 26.3891H22.2755C22.1764 26.3891 22.0967 26.3093 22.0967 26.2102V9.59265C22.0967 9.49349 22.1764 9.41379 22.2755 9.41379H24.7962C24.8953 9.41379 24.9751 9.49349 24.9751 9.59265V11.1465ZM28.3924 11.6589C26.3913 11.6589 24.8542 13.2468 24.8542 15.3445C24.8542 17.4446 26.3913 19.0301 28.3924 19.0301C30.4177 19.0301 31.9546 17.4446 31.9546 15.3445C31.9546 13.2444 30.4177 11.6589 28.3924 11.6589Z"
            fill="white" />
        <path
            d="M45.846 17.1285C46.2423 17.3847 47.284 18.0541 47.6682 18.3007C47.7504 18.3538 47.7746 18.4602 47.7262 18.5447C46.5661 20.4999 44.6062 21.5657 42.3706 21.5657C39.0259 21.5657 36.22 18.8565 36.22 15.3425C36.22 11.8286 39.0259 9.11938 42.3223 9.11938C45.7855 9.11938 48.2313 11.7995 48.1829 15.8718C48.1829 15.9708 48.1008 16.0506 48.0017 16.0506H38.9292C39.2216 17.9309 40.662 19.1006 42.3706 19.1006C43.9609 19.1006 44.8575 18.4046 45.5946 17.1865C45.6478 17.0995 45.7614 17.0705 45.846 17.1261V17.1285ZM39.05 14.0738H45.3215C45.1257 12.7324 44.0768 11.5604 42.3199 11.5604C40.7828 11.5604 39.5117 12.5366 39.05 14.0738Z"
            fill="white" />
        <path
            d="M57.3407 9.58611C57.3672 9.49663 57.3214 9.40483 57.2368 9.36852C56.9805 9.26222 56.6809 9.19214 56.2121 9.19214C54.7233 9.19214 53.527 10.0936 52.9422 11.2657V9.59095C52.9422 9.49179 52.8624 9.4121 52.7633 9.4121H50.2426C50.1435 9.4121 50.0638 9.49179 50.0638 9.59095V21.0922C50.0638 21.1914 50.1435 21.2711 50.2426 21.2711H52.7633C52.8624 21.2711 52.9422 21.1914 52.9422 21.0922V15.2195C52.9422 13.291 54.1384 12.0222 55.8713 12.0222C56.0743 12.0222 56.2676 12.0367 56.4537 12.0656C56.5456 12.0802 56.6326 12.027 56.6567 11.9399C56.7945 11.4688 57.2053 10.05 57.3407 9.58611Z"
            fill="white" />
        <path
            d="M57.7832 18.2619L59.9414 17.4789C60.0356 17.4451 60.1371 17.4959 60.171 17.5877C60.5601 18.6172 61.3431 19.3205 62.4548 19.3205C63.3321 19.3205 64.1393 18.784 64.1393 17.8076C64.1393 15.5866 58.3294 17.0753 58.3294 12.8291C58.3294 10.7797 60.0622 9.11938 62.5031 9.11938C64.5042 9.11938 66.005 10.2093 66.5705 11.7754C66.6044 11.8696 66.5488 11.976 66.4522 12.005L64.2795 12.6793C64.1877 12.7082 64.0934 12.6575 64.0596 12.5657C63.772 11.7706 63.2064 11.3621 62.4065 11.3621C61.65 11.3621 61.0144 11.8503 61.0144 12.6309C61.0144 14.7529 66.8726 13.2907 66.8726 17.6336C66.8726 19.9271 64.7725 21.5633 62.3824 21.5633C60.2241 21.5633 58.2956 20.3646 57.6744 18.4819C57.6454 18.39 57.6962 18.291 57.7856 18.2595L57.7832 18.2619Z"
            fill="white" />
        <path
            d="M74.368 9.11938C77.7853 9.11938 80.6661 11.8286 80.6661 15.3425C80.6661 18.8565 77.7853 21.5657 74.368 21.5657C70.9507 21.5657 68.0941 18.8565 68.0941 15.3425C68.0941 11.8286 70.9507 9.11938 74.368 9.11938ZM74.368 19.0305C76.3933 19.0305 77.9304 17.4451 77.9304 15.3449C77.9304 13.2448 76.3933 11.6594 74.368 11.6594C72.3669 11.6594 70.83 13.2472 70.83 15.3449C70.83 17.4451 72.3669 19.0305 74.368 19.0305Z"
            fill="white" />
        <path
            d="M87.7466 11.6909C86.1587 11.6909 85.1099 12.9113 85.1099 14.7891V21.1017C85.1099 21.2008 85.0301 21.2806 84.931 21.2806H82.4103C82.3112 21.2806 82.2315 21.2008 82.2315 21.1017V9.60039C82.2315 9.50133 82.3112 9.42154 82.4103 9.42154H84.931C85.0301 9.42154 85.1099 9.50133 85.1099 9.60039V11.0069C85.8904 9.90977 87.1109 9.12671 88.7713 9.12671C91.4563 9.12671 93.0175 10.9828 93.0175 13.4213V21.0993C93.0175 21.1984 92.9377 21.2782 92.8386 21.2782H90.318C90.2189 21.2782 90.1392 21.1984 90.1392 21.0993V14.2019C90.1392 12.6649 89.2619 11.6885 87.7466 11.6885V11.6909Z"
            fill="white" />
        <path
            d="M107.273 9.59308V21.0944C107.273 21.1935 107.193 21.2733 107.094 21.2733H104.574C104.474 21.2733 104.394 21.1935 104.394 21.0944V19.5404C103.662 20.7367 102.101 21.5657 100.489 21.5657C97.1954 21.5657 94.5828 18.8323 94.5828 15.3425C94.5828 11.8527 97.1954 9.11938 100.489 9.11938C102.101 9.11938 103.662 9.95078 104.394 11.1446V9.59066C104.394 9.49159 104.474 9.4118 104.574 9.4118H107.094C107.193 9.4118 107.273 9.49159 107.273 9.59066V9.59308ZM100.975 19.0305C103 19.0305 104.537 17.4451 104.537 15.3449C104.537 13.2448 103 11.6594 100.975 11.6594C98.9735 11.6594 97.4364 13.2472 97.4364 15.3449C97.4364 17.4451 98.9735 19.0305 100.975 19.0305Z"
            fill="white" />
    </g>
    <defs>
        <clipPath id="clip0_554_1032">
            <rect width="107" height="27" fill="white" transform="translate(0.5)" />
        </clipPath>
    </defs>
</svg>