<svg width="123" height="28" viewBox="0 0 123 28" fill="none" xmlns="http://www.w3.org/2000/svg">
    <g clip-path="url(#clip0_554_1047)">
        <path fill-rule="evenodd" clip-rule="evenodd"
            d="M5.57063 17.3949C5.57063 17.6312 5.7623 17.8237 5.99754 17.8237H10.2056C10.4409 17.8237 10.6325 17.6312 10.6325 17.3949V15.2774H12.7409C12.9762 15.2774 13.1679 15.0849 13.1679 14.8487V13.1687C13.1679 12.9324 12.9762 12.7399 12.7409 12.7399H5.99754C5.7623 12.7399 5.57063 12.9324 5.57063 13.1687V17.3949ZM5.57063 8.06742C5.57063 7.83117 5.37895 7.63867 5.14372 7.63867H0.926909C0.691673 7.63867 0.5 7.83117 0.5 8.06742V12.2937C0.5 12.5299 0.691673 12.7224 0.926909 12.7224H2.60841C2.84364 12.7224 3.03531 12.5299 3.03531 12.2937V10.1762H5.14372C5.37895 10.1762 5.57063 9.98367 5.57063 9.74742V8.06742ZM8.10594 23.3274C8.10594 23.0912 7.91427 22.8987 7.67903 22.8987H5.99754C5.7623 22.8987 5.57063 23.0912 5.57063 23.3274V25.0074C5.57063 25.2437 5.7623 25.4362 5.99754 25.4362H7.67903C7.91427 25.4362 8.10594 25.2437 8.10594 25.0074V23.3274ZM38.0854 7.63867H33.8773C33.642 7.63867 33.4504 7.83117 33.4504 8.06742V9.74742C33.4504 9.98367 33.642 10.1762 33.8773 10.1762H35.9857V12.2937C35.9857 12.5299 36.1774 12.7224 36.4126 12.7224H38.0941C38.3293 12.7224 38.521 12.5299 38.521 12.2937V8.06742C38.521 7.83117 38.3293 7.63867 38.0941 7.63867H38.0854ZM33.0235 12.7224H26.28C26.0448 12.7224 25.8531 12.9149 25.8531 13.1512V14.8312C25.8531 15.0674 26.0448 15.2599 26.28 15.2599H28.3885V17.3774C28.3885 17.6137 28.5801 17.8062 28.8154 17.8062H33.0235C33.2587 17.8062 33.4504 17.6137 33.4504 17.3774V13.1512C33.4504 12.9149 33.2587 12.7224 33.0235 12.7224ZM30.4881 25.4537H28.3797V23.3362C28.3797 23.0999 28.1881 22.9074 27.9528 22.9074H25.8444V18.2524C25.8444 18.0162 25.6528 17.8237 25.4175 17.8237H23.3091V13.1687C23.3091 12.9324 23.1174 12.7399 22.8822 12.7399H16.1388C15.9036 12.7399 15.7119 12.9324 15.7119 13.1687V17.8237H13.6035C13.3682 17.8237 13.1766 18.0162 13.1766 18.2524V22.9074H11.0682C10.8329 22.9074 10.6413 23.0999 10.6413 23.3362V25.4537H8.53285C8.29762 25.4537 8.10594 25.6462 8.10594 25.8824V27.5624C8.10594 27.7987 8.29762 27.9912 8.53285 27.9912H12.7409C12.9762 27.9912 13.1679 27.7987 13.1679 27.5624V25.4449H15.2763C15.5115 25.4449 15.7032 25.2524 15.7032 25.0162V20.3612H23.3091V25.0162C23.3091 25.2524 23.5008 25.4449 23.736 25.4449H25.8444V27.5624C25.8444 27.7987 26.0361 27.9912 26.2713 27.9912H30.4794C30.7147 27.9912 30.9063 27.7987 30.9063 27.5624V25.8824C30.9063 25.6462 30.7147 25.4537 30.4794 25.4537H30.4881ZM33.0235 22.8987H31.342C31.1067 22.8987 30.9151 23.0912 30.9151 23.3274V25.0074C30.9151 25.2437 31.1067 25.4362 31.342 25.4362H33.0235C33.2587 25.4362 33.4504 25.2437 33.4504 25.0074V23.3274C33.4504 23.0912 33.2587 22.8987 33.0235 22.8987Z"
            fill="white" />
        <path fill-rule="evenodd" clip-rule="evenodd"
            d="M11.0681 7.63875H27.9528C28.188 7.63875 28.3797 7.44625 28.3797 7.21V5.52125C28.3797 5.285 28.188 5.0925 27.9528 5.0925H25.8444V2.975C25.8444 2.73875 25.6527 2.54625 25.4175 2.54625H23.3091V0.42875C23.3091 0.1925 23.1174 0 22.8822 0H16.1388C15.9035 0 15.7119 0.1925 15.7119 0.42875V2.54625H13.6035C13.3682 2.54625 13.1765 2.73875 13.1765 2.975V5.0925H11.0681C10.8329 5.0925 10.6412 5.285 10.6412 5.52125V7.21C10.6412 7.44625 10.8329 7.63875 11.0681 7.63875Z"
            fill="#6EE8BC" />
        <path fill-rule="evenodd" clip-rule="evenodd"
            d="M82.266 12.4686C80.933 12.4686 79.7307 13.0199 78.8769 13.9036C78.0492 13.0199 76.8731 12.4599 75.5662 12.4599C74.8344 12.4599 74.0851 12.7311 73.5101 13.1161V12.9849C73.5101 12.8011 73.3532 12.6611 73.179 12.6611H71.3232C71.149 12.6611 70.9922 12.8011 70.9922 12.9849V22.2861C70.9922 22.4699 71.149 22.6099 71.3232 22.6099H73.1877C73.362 22.6099 73.5188 22.4699 73.5188 22.2861V17.0011C73.5188 15.8636 74.4423 14.9449 75.5749 14.9449C76.7075 14.9449 77.631 15.8636 77.631 17.0011V22.2861C77.631 22.4699 77.7879 22.6099 77.9621 22.6099H79.8353C80.0095 22.6099 80.1664 22.4699 80.1664 22.2861V17.0099C80.1664 15.8811 81.1073 14.9536 82.2748 14.9536C83.4422 14.9536 84.3832 15.8811 84.3832 17.0099V22.2861C84.3832 22.4699 84.54 22.6099 84.7142 22.6099H86.5874C86.7704 22.6099 86.9185 22.4699 86.9185 22.2861V17.0099C86.9185 14.4986 84.8362 12.4599 82.2748 12.4599L82.266 12.4686ZM96.2146 17.4649C95.5002 17.0274 94.5941 16.8261 93.8013 16.6424H93.7839C93.2088 16.5111 92.7035 16.3886 92.3376 16.2224C91.9717 16.0561 91.8149 15.8549 91.8149 15.5924C91.8149 15.3649 91.902 15.1549 92.1024 14.9974C92.3115 14.8311 92.66 14.6999 93.2001 14.6736C94.1237 14.6736 94.8294 14.6911 95.3085 14.7174C95.5525 14.7261 95.7354 14.7349 95.8574 14.7436C95.9184 14.7436 95.962 14.7436 95.9968 14.7524C96.0142 14.7524 96.023 14.7524 96.0317 14.7524C96.1711 14.7524 96.3018 14.7261 96.3976 14.6299C96.476 14.5511 96.4934 14.4461 96.5021 14.3936C96.5021 14.3936 96.5021 14.3936 96.5021 14.3849C96.5021 14.3674 96.5021 14.3499 96.5109 14.3324V14.3149V13.1686C96.5109 13.0286 96.5021 12.8974 96.4499 12.8011C96.3802 12.6786 96.2756 12.6436 96.1798 12.6174H96.1711C96.1711 12.6174 96.1536 12.6174 96.1362 12.6174C96.1014 12.6174 96.0578 12.6174 95.9968 12.5999C95.8748 12.5911 95.6919 12.5736 95.4479 12.5561C94.96 12.5299 94.2108 12.4949 93.1827 12.4949C91.8671 12.5474 90.8739 12.9061 90.2031 13.4924C89.5322 14.0699 89.2011 14.8574 89.2011 15.6974C89.2011 16.2574 89.3318 16.7124 89.5583 17.0886C89.7849 17.4649 90.0985 17.7449 90.4557 17.9724C91.1701 18.4099 92.0762 18.6199 92.8691 18.8036H92.8865C93.4615 18.9436 93.9755 19.0574 94.3415 19.2324C94.6987 19.4074 94.8729 19.5999 94.8729 19.8799C94.8729 20.1074 94.7684 20.3174 94.507 20.4749C94.2369 20.6411 93.81 20.7461 93.174 20.7461C92.4509 20.7461 91.658 20.6674 91.0482 20.5886C90.7432 20.5536 90.4819 20.5099 90.2989 20.4836C90.2031 20.4661 90.1334 20.4574 90.0811 20.4486C90.0724 20.4486 90.055 20.4486 90.0462 20.4486C90.0462 20.4486 90.0288 20.4486 90.0201 20.4486H90.0027H89.9853H89.9678C89.8371 20.4486 89.7152 20.4749 89.628 20.5624C89.5496 20.6411 89.5322 20.7374 89.5322 20.7899C89.5322 20.7899 89.5322 20.7899 89.5322 20.7986C89.5322 20.8249 89.5235 20.8424 89.5235 20.8599V20.8774L89.4451 22.1724C89.4451 22.2599 89.4538 22.3649 89.5061 22.4524C89.5496 22.5486 89.6368 22.6361 89.7674 22.6711C89.7674 22.6711 89.7674 22.6711 89.7762 22.6711C89.7849 22.6711 89.8023 22.6711 89.8197 22.6799C89.8633 22.6799 89.9156 22.6974 90.0027 22.7149C90.1595 22.7411 90.386 22.7761 90.6822 22.8111C91.2747 22.8811 92.1285 22.9424 93.174 22.9424H93.1827C93.3134 22.9424 94.3589 22.9511 95.387 22.5661C95.901 22.3736 96.415 22.0761 96.8071 21.6211C97.1991 21.1661 97.4518 20.5536 97.4518 19.7486C97.4518 19.1974 97.3211 18.7424 97.0946 18.3749C96.8681 17.9986 96.5544 17.7186 96.1885 17.4999L96.2146 17.4649ZM117.238 12.6699C116.192 12.6699 115.225 12.9674 114.406 13.4749V9.21364C114.406 9.02989 114.249 8.88989 114.075 8.88989H112.211C112.036 8.88989 111.88 9.02989 111.88 9.21364V22.3036C111.88 22.4874 112.036 22.6274 112.211 22.6274H114.075C114.258 22.6274 114.406 22.4874 114.406 22.3036V21.8661C115.173 22.4699 116.201 22.9074 117.238 22.9074C120.139 22.9074 122.509 20.6236 122.509 17.7886C122.509 14.9536 120.148 12.6699 117.238 12.6699ZM117.238 20.4399C115.73 20.4399 114.511 19.2586 114.511 17.7886C114.511 16.3186 115.73 15.1374 117.238 15.1374C118.745 15.1374 119.965 16.3186 119.965 17.7886C119.965 19.2586 118.745 20.4399 117.238 20.4399ZM108.996 12.6699H107.123C106.94 12.6699 106.792 12.8099 106.792 12.9936V18.4011C106.792 19.5211 105.851 20.4311 104.683 20.4311H104.648C103.481 20.4311 102.54 19.5124 102.54 18.4011V12.9936C102.54 12.8099 102.383 12.6699 102.209 12.6699H100.336C100.153 12.6699 100.005 12.8099 100.005 12.9936V18.4011C100.005 20.8861 102.087 22.8986 104.648 22.8986H104.683C107.245 22.8986 109.327 20.8949 109.327 18.4011V12.9936C109.327 12.8099 109.17 12.6699 108.996 12.6699ZM55.336 17.4649C54.6215 17.0274 53.7154 16.8261 52.9226 16.6424H52.9052C52.3302 16.5111 51.8249 16.3886 51.4589 16.2224C51.1017 16.0561 50.9362 15.8549 50.9362 15.5924C50.9362 15.3649 51.0233 15.1549 51.2324 14.9974C51.4415 14.8311 51.79 14.6999 52.3302 14.6736C53.2537 14.6736 53.9594 14.6911 54.4386 14.7174C54.6825 14.7261 54.8655 14.7349 54.9875 14.7436C55.0485 14.7436 55.092 14.7436 55.1269 14.7524C55.1443 14.7524 55.153 14.7524 55.1617 14.7524C55.3011 14.7524 55.4318 14.7261 55.5276 14.6299C55.606 14.5511 55.6235 14.4461 55.6322 14.3936C55.6322 14.3936 55.6322 14.3936 55.6322 14.3849C55.6322 14.3674 55.6322 14.3499 55.6409 14.3324V14.3149V13.1686C55.6409 13.0286 55.6322 12.8974 55.5799 12.8011C55.5102 12.6786 55.4057 12.6436 55.3098 12.6174H55.3011C55.3011 12.6174 55.2837 12.6174 55.2663 12.6174C55.2314 12.6174 55.1878 12.6174 55.1269 12.5999C55.0049 12.5911 54.8219 12.5736 54.578 12.5561C54.0814 12.5299 53.3408 12.4949 52.3128 12.4949C50.9972 12.5474 50.004 12.9061 49.3331 13.4924C48.6622 14.0699 48.3312 14.8574 48.3312 15.6974C48.3312 16.2574 48.4619 16.7124 48.6884 17.0886C48.9149 17.4649 49.2286 17.7449 49.5858 17.9724C50.3002 18.4099 51.2063 18.6199 51.9991 18.8036H52.0165C52.5915 18.9436 53.1056 19.0574 53.4715 19.2324C53.8287 19.4074 54.003 19.5999 54.003 19.8799C54.003 20.1074 53.8984 20.3174 53.637 20.4749C53.367 20.6411 52.94 20.7461 52.304 20.7461C51.5809 20.7461 50.7881 20.6674 50.1782 20.5886C49.8733 20.5536 49.6119 20.5099 49.4289 20.4836C49.3418 20.4661 49.2634 20.4574 49.2198 20.4486C49.2024 20.4486 49.1937 20.4486 49.185 20.4486H49.1676H49.1501H49.1327H49.1153C48.9846 20.4486 48.8626 20.4749 48.7755 20.5624C48.6971 20.6411 48.6797 20.7374 48.671 20.7899C48.671 20.7899 48.671 20.7899 48.671 20.7986C48.671 20.8249 48.671 20.8424 48.6622 20.8599V20.8774L48.5838 22.1724C48.5838 22.2599 48.5925 22.3649 48.6448 22.4524C48.6884 22.5486 48.7755 22.6361 48.9062 22.6711C48.9062 22.6711 48.9062 22.6711 48.9149 22.6711C48.9236 22.6711 48.941 22.6711 48.9585 22.6799C49.002 22.6799 49.063 22.6974 49.1414 22.7149C49.2983 22.7411 49.5248 22.7761 49.821 22.8111C50.4134 22.8811 51.2673 22.9424 52.3128 22.9424C52.4434 22.9424 53.4889 22.9511 54.517 22.5661C55.031 22.3736 55.5451 22.0761 55.9371 21.6211C56.3292 21.1661 56.5818 20.5536 56.5818 19.7486C56.5818 19.1974 56.4511 18.7424 56.2246 18.3749C55.9981 18.0074 55.6845 17.7186 55.3185 17.4999L55.336 17.4649ZM68.1171 12.6699H66.2439C66.0609 12.6699 65.9128 12.8099 65.9128 12.9936V18.4011C65.9128 19.5211 64.9719 20.4311 63.8044 20.4311H63.7696C62.6021 20.4311 61.6612 19.5124 61.6612 18.4011V12.9936C61.6612 12.8099 61.5044 12.6699 61.3301 12.6699H59.4569C59.274 12.6699 59.1259 12.8099 59.1259 12.9936V18.4011C59.1259 20.8861 61.2081 22.8986 63.7696 22.8986H63.8044C66.3659 22.8986 68.4481 20.8949 68.4481 18.4011V12.9936C68.4481 12.8099 68.2913 12.6699 68.1171 12.6699Z"
            fill="white" />
    </g>
    <defs>
        <clipPath id="clip0_554_1047">
            <rect width="122" height="28" fill="white" transform="translate(0.5)" />
        </clipPath>
    </defs>
</svg>