<svg width="93" height="30" viewBox="0 0 93 30" fill="none" xmlns="http://www.w3.org/2000/svg">
    <g clip-path="url(#clip0_525_1837)">
        <path
            d="M14.8179 0C6.63428 0 0 6.71582 0 15C0 23.2842 6.63428 30 14.8179 30C23.0014 30 29.6357 23.2842 29.6357 15C29.6357 6.71582 23.0014 0 14.8179 0ZM24.1745 15.7087C23.7312 16.1686 23.0035 16.1777 22.5492 15.729L20.3192 13.4673V19.3381C20.3192 19.9804 19.8048 20.5004 19.1703 20.5011C18.5351 20.5011 18.02 19.9811 18.02 19.3381V13.4855L11.4196 20.1712C11.3989 20.195 11.3747 20.216 11.3506 20.2369L11.3388 20.2474C11.2995 20.2803 11.258 20.3103 11.2145 20.3369L11.1883 20.3523C11.1441 20.3788 11.0979 20.4019 11.0502 20.4221C11.0171 20.4361 10.9826 20.4487 10.948 20.4592H10.9425C10.9108 20.469 10.8783 20.4767 10.8459 20.4836H10.8327C10.8037 20.4899 10.7741 20.4934 10.7444 20.4969H10.7216C10.6905 20.4997 10.6594 20.5011 10.6284 20.5011H10.6111C10.5738 20.5011 10.5365 20.499 10.4993 20.4955H10.4944C10.3087 20.4788 10.1292 20.4159 9.97247 20.3131C9.94209 20.29 9.91172 20.267 9.88272 20.2432C9.85234 20.2188 9.82334 20.1922 9.79641 20.1642L5.4578 15.7723C5.03457 15.3229 5.03457 14.6156 5.4578 14.1662C5.89621 13.7007 6.62323 13.6833 7.08305 14.1271L9.45949 16.5327V10.6619C9.45949 10.0196 9.97385 9.49958 10.6084 9.49888C11.2435 9.49888 11.7586 10.0189 11.7586 10.6619V16.5327L18.2679 9.94269C18.6318 9.47023 19.2918 9.3598 19.7868 9.68759C19.7972 9.69388 19.8069 9.69947 19.8165 9.70646C19.8386 9.72114 19.8593 9.73721 19.88 9.75398C19.9097 9.77565 19.938 9.79941 19.965 9.82387L19.9815 9.83855L19.9891 9.84624L24.1745 14.083C24.6108 14.5352 24.6108 15.2565 24.1745 15.7087Z"
            fill="white" />
        <path d="M34.8125 11.4984H38.2232V20.5172H40.2662V11.4984H43.6768V9.56665H34.8125V11.4984Z" fill="white" />
        <path
            d="M48.1535 12.2854C47.9119 12.3022 47.6723 12.3455 47.4396 12.4147C47.2153 12.4804 47.0012 12.5761 46.8017 12.6991C46.5511 12.8473 46.3315 13.0437 46.1555 13.2778C46.0726 13.389 45.9974 13.5057 45.9304 13.6273V12.3043H44.1277V20.5172H46.1893V16.3195C46.1838 16.0315 46.2259 15.7443 46.3129 15.4703C46.4731 14.9797 46.8307 14.5806 47.2974 14.3716C47.5515 14.2514 47.8249 14.1801 48.1045 14.162C48.3683 14.1354 48.6348 14.1592 48.8902 14.2319V12.3043C48.6458 12.2735 48.3993 12.2672 48.1535 12.2854Z"
            fill="white" />
        <path
            d="M56.6424 13.5666C56.3765 13.0375 55.9271 12.6258 55.3803 12.4113C54.8245 12.1876 54.1886 12.0758 53.4719 12.0758C52.4957 12.0758 51.7245 12.289 51.1583 12.7153C50.6039 13.1242 50.1972 13.7071 50.0019 14.3731L51.8494 14.9658C51.9799 14.5905 52.2078 14.3291 52.533 14.183C52.8271 14.0432 53.1467 13.9678 53.4719 13.9622C54.0132 13.9622 54.3992 14.0761 54.6291 14.3046C54.8093 14.4829 54.917 14.7435 54.9556 15.0804C54.6104 15.1328 54.2825 15.1825 53.9752 15.2279C53.4498 15.3069 52.9797 15.3893 52.5633 15.4753C52.1988 15.5473 51.8398 15.6465 51.489 15.7716C51.1065 15.9037 50.753 16.1099 50.4486 16.379C50.1986 16.6075 50.0067 16.8934 49.8886 17.2121C49.7706 17.5462 49.7119 17.8984 49.716 18.2535C49.7112 18.691 49.8189 19.1222 50.0281 19.5045C50.2414 19.8896 50.559 20.2048 50.9443 20.4131C51.3475 20.6388 51.8398 20.7521 52.4204 20.7514C53.1219 20.7514 53.7018 20.6284 54.1596 20.3823C54.5531 20.1601 54.9011 19.8645 55.1849 19.5108V20.5235H56.9731V15.4977C56.9744 15.158 56.9593 14.8176 56.9275 14.4794C56.893 14.1593 56.7956 13.8489 56.6424 13.5666ZM54.9184 17.2456C54.9073 17.514 54.8445 17.7782 54.734 18.0228C54.6498 18.1808 54.5448 18.3262 54.4226 18.4562C54.2466 18.6463 54.0381 18.8021 53.8068 18.916C53.5106 19.0593 53.184 19.1278 52.8561 19.1173C52.6483 19.1222 52.4418 19.0866 52.2478 19.0111C52.0897 18.9496 51.9523 18.8426 51.8536 18.7036C51.759 18.561 51.7107 18.3926 51.7155 18.2206C51.7141 18.0913 51.7438 17.9634 51.8025 17.8481C51.8688 17.7265 51.9606 17.621 52.0724 17.5399C52.2216 17.4316 52.3838 17.3435 52.5557 17.2778C52.7546 17.2044 52.9576 17.1436 53.164 17.0954C53.3939 17.0395 53.697 16.9773 54.0733 16.9088C54.3129 16.8654 54.6056 16.8137 54.9398 16.7564C54.9356 16.9025 54.9294 17.0597 54.9184 17.2456Z"
            fill="white" />
        <path
            d="M66.3248 14.2626C66.2254 13.8887 66.0638 13.5344 65.8484 13.2143C65.6081 12.8648 65.2871 12.5803 64.9129 12.3854C64.5124 12.168 63.9939 12.059 63.358 12.059C62.562 12.059 61.9019 12.2337 61.3786 12.5831C61.1383 12.7439 60.9201 12.9354 60.7289 13.1528V12.3043H58.911V20.5172H60.9823V16.3503C60.9823 15.838 61.0382 15.427 61.1507 15.1181C61.2633 14.8092 61.4083 14.575 61.5857 14.415C61.7459 14.264 61.9385 14.1529 62.1491 14.0914C62.3321 14.0383 62.5219 14.0096 62.7125 14.0075C63.1481 14.0075 63.4844 14.1068 63.7226 14.3046C63.958 14.4982 64.1361 14.7533 64.2376 15.0419C64.3405 15.3243 64.4033 15.6199 64.4254 15.9204C64.4454 16.2119 64.4558 16.4509 64.4551 16.6389V20.5172H66.5264V15.9086C66.5264 15.7688 66.5167 15.5542 66.4967 15.2544C66.4705 14.9189 66.4131 14.5869 66.3248 14.2626Z"
            fill="white" />
        <path
            d="M73.9761 16.1693C73.6026 15.9547 73.1075 15.766 72.4924 15.6031C71.8613 15.441 71.3918 15.3089 71.0839 15.2076C70.776 15.1062 70.573 15.007 70.4756 14.9112C70.379 14.8183 70.3258 14.6883 70.3286 14.5534C70.3286 14.3151 70.4425 14.134 70.6703 14.0061C70.8982 13.8782 71.2006 13.8293 71.5755 13.8545C71.9614 13.8845 72.2666 13.9887 72.4924 14.1662C72.7167 14.3416 72.8583 14.6037 72.8831 14.8889L74.9717 14.508C74.9102 14.032 74.7162 13.5833 74.4117 13.215C74.0907 12.8376 73.6813 12.5475 73.2208 12.3714C72.6808 12.1645 72.1078 12.0639 71.5306 12.0744C70.8747 12.0744 70.3051 12.1799 69.8218 12.3903C69.3696 12.5748 68.9795 12.8872 68.6971 13.2891C68.4271 13.6937 68.2877 14.1732 68.2994 14.6617C68.2884 15.0377 68.3788 15.4095 68.5618 15.7373C68.7371 16.0344 69.023 16.2895 69.4186 16.5019C69.8142 16.7144 70.3438 16.9073 71.0066 17.0799C71.592 17.2372 72.0236 17.3644 72.3018 17.4601C72.578 17.5566 72.7589 17.6537 72.8389 17.753C72.9232 17.8648 72.966 18.0039 72.9591 18.1444C72.9687 18.3848 72.8548 18.6134 72.6587 18.7489C72.4571 18.8929 72.172 18.9649 71.804 18.9649C71.3532 18.9649 70.981 18.8559 70.6883 18.6378C70.3935 18.4177 70.1912 18.0934 70.1214 17.7292L68.0302 18.0563C68.1655 18.9132 68.5473 19.5764 69.1756 20.0454C69.8038 20.5144 70.6289 20.7492 71.6507 20.7485C72.7126 20.7485 73.5439 20.5074 74.1445 20.0258C74.7452 19.5443 75.0469 18.8817 75.049 18.0381C75.06 17.6579 74.9717 17.2812 74.7935 16.9465C74.6216 16.6452 74.3496 16.3866 73.9761 16.1693Z"
            fill="white" />
        <path
            d="M83.1746 13.5666C82.9088 13.0375 82.4593 12.6258 81.9125 12.4113C81.3567 12.1876 80.7201 12.0758 80.0042 12.0758C79.0279 12.0758 78.2567 12.289 77.6905 12.7153C77.1361 13.1249 76.7295 13.7071 76.5334 14.3731L78.3817 14.9658C78.5122 14.5905 78.74 14.3291 79.0652 14.183C79.3593 14.0432 79.679 13.9678 80.0042 13.9622C80.5454 13.9622 80.9314 14.0761 81.1613 14.3046C81.3415 14.4829 81.4485 14.7435 81.4879 15.0804C81.1427 15.1328 80.8147 15.1825 80.5075 15.2279C79.9821 15.3069 79.5119 15.3893 79.0956 15.4753C78.731 15.5473 78.372 15.6465 78.0213 15.7716C77.5856 15.9345 77.239 16.1365 76.9808 16.3762C76.7309 16.6047 76.5389 16.8906 76.4209 17.2093C76.3021 17.5434 76.2441 17.8956 76.2483 18.2507C76.2434 18.6882 76.3511 19.1194 76.5603 19.5017C76.7737 19.8868 77.0913 20.2027 77.4765 20.4103C77.8797 20.6361 78.372 20.7493 78.9526 20.7486C79.6541 20.7486 80.2341 20.6256 80.6918 20.3796C81.0854 20.1573 81.4333 19.8617 81.7171 19.508V20.5207H83.5053V15.4977C83.5067 15.158 83.4915 14.8176 83.4597 14.4794C83.4252 14.1593 83.3278 13.8489 83.1746 13.5666ZM81.4506 17.2456C81.4389 17.514 81.376 17.7782 81.2663 18.0228C81.182 18.1808 81.0771 18.3262 80.9549 18.4562C80.7788 18.6463 80.5703 18.8021 80.339 18.916C80.0428 19.0593 79.7162 19.1278 79.3883 19.1173C79.1805 19.1222 78.974 19.0866 78.78 19.0111C78.6219 18.9496 78.4845 18.8426 78.3858 18.7036C78.2912 18.561 78.2429 18.3926 78.2477 18.2206C78.2463 18.0913 78.276 17.9634 78.3347 17.8481C78.401 17.7258 78.4928 17.621 78.6047 17.5399C78.7538 17.4316 78.916 17.3435 79.088 17.2778C79.2868 17.2044 79.4898 17.1436 79.6962 17.0954C79.9261 17.0395 80.2292 16.9773 80.6055 16.9088C80.8451 16.8654 81.1378 16.8137 81.472 16.7564C81.4679 16.9025 81.4609 17.0597 81.4506 17.2456Z"
            fill="white" />
        <path
            d="M89.8751 16.4104L92.8046 12.3043H90.2804L87.5312 16.2587V9.56665H85.4578L85.4426 20.5172H87.5312V16.5627L90.3405 20.5172H93L89.8751 16.4104Z"
            fill="white" />
    </g>
    <defs>
        <clipPath id="clip0_525_1837">
            <rect width="93" height="30" fill="white" />
        </clipPath>
    </defs>
</svg>