<svg width="93" height="90" viewBox="0 0 93 90" fill="none" xmlns="http://www.w3.org/2000/svg">
<g id="Group 105">
<path id="Vector" d="M35.0842 35.7599C44.4348 35.7599 52.015 28.1797 52.015 18.829C52.015 9.47839 44.4348 1.89819 35.0842 1.89819C25.7335 1.89819 18.1533 9.47839 18.1533 18.829C18.1533 28.1797 25.7335 35.7599 35.0842 35.7599Z" stroke="#00FFB9" stroke-width="2" stroke-miterlimit="10"/>
<path id="Vector_2" d="M52.0151 48.8277C47.0286 45.9661 41.2472 44.334 35.0842 44.334C16.2616 44.334 1 59.5956 1 78.4182H44.2624" stroke="#00FFB9" stroke-width="2" stroke-miterlimit="10"/>
<path id="Vector_3" d="M86.719 64.1264C87.2595 65.8646 87.551 67.7087 87.551 69.6217C87.551 79.8279 79.2737 88.1052 69.0675 88.1052C58.8613 88.1052 50.584 79.8279 50.584 69.6217C50.584 59.4155 58.8613 51.1382 69.0675 51.1382C74.1706 51.1382 78.7915 53.2049 82.1352 56.5539" stroke="#00FFB9" stroke-width="2" stroke-miterlimit="10"/>
<path id="Vector_4" d="M57.9395 64.2536L69.0677 75.3871L91.4249 53.0247" stroke="#00FFB9" stroke-width="2" stroke-miterlimit="10"/>
</g>
</svg>
