<svg width="109" height="92" viewBox="0 0 109 92" fill="none" xmlns="http://www.w3.org/2000/svg">
<g id="Group 104">
<path id="Vector" d="M98.5965 1.3623H10.4062C5.31863 1.3623 1.19434 5.48956 1.19434 10.5808V70.4536C1.19434 75.5448 5.31863 79.6721 10.4062 79.6721H98.5965C103.684 79.6721 107.808 75.5448 107.808 70.4536V10.5808C107.808 5.48956 103.684 1.3623 98.5965 1.3623Z" stroke="#FF671D" stroke-width="2" stroke-miterlimit="10"/>
<path id="Vector_2" d="M26.2725 90.5776H82.7306" stroke="#FF671D" stroke-width="2" stroke-miterlimit="10"/>
<path id="Vector_3" d="M40.3496 79.6721V90.5777" stroke="#FF671D" stroke-width="2" stroke-miterlimit="10"/>
<path id="Vector_4" d="M69.498 79.6721V90.5777" stroke="#FF671D" stroke-width="2" stroke-miterlimit="10"/>
<path id="Vector_5" d="M1.19434 63.1035H107.808" stroke="#FF671D" stroke-width="2" stroke-miterlimit="10"/>
<path id="Vector_6" d="M48.6559 31.5799L54.4986 29.9401C54.4934 29.9769 53.6452 34.0921 51.66 34.6624C49.6721 35.2326 48.6559 35.5007 48.6559 35.5007C48.6559 35.5007 46.5315 36.2838 46.5315 34.1999C46.5315 32.003 48.6559 31.5799 48.6559 31.5799ZM64.9999 23.0526C64.9999 23.0526 59.7322 24.5058 57.7417 25.0707C55.7486 25.6331 54.5144 29.9007 54.5013 29.9401L64.9999 27.0153C64.9999 27.0153 67.1243 26.5581 67.1243 24.3586C67.1348 22.2668 64.9999 23.0526 64.9999 23.0526ZM60.3283 32.3446C60.3283 32.3446 59.3146 32.61 57.3268 33.1803C55.3389 33.7479 54.5091 37.913 54.5013 37.9498L44.0053 40.8746C44.0053 40.8746 41.8809 41.3292 41.8809 43.5313C41.8704 45.6231 44.0053 44.84 44.0053 44.84C44.0053 44.84 49.6721 43.2449 51.66 42.6773C53.6478 42.1097 54.4908 37.9919 54.5013 37.9551L60.344 36.3153C60.344 36.3153 62.4684 35.8922 62.4684 33.6953C62.4684 31.4984 60.3283 32.3499 60.3283 32.3499V32.3446Z" fill="#FF671D"/>
</g>
</svg>
