<?xml version="1.0" encoding="UTF-8"?>
<svg id="Layer_2" data-name="Layer 2" xmlns="http://www.w3.org/2000/svg" viewBox="0 0 50 50">
  <defs>
    <style>
      .cls-1 {
        fill: #fff;
      }
    </style>
  </defs>
  <g id="Layer_1-2" data-name="Layer 1">
    <g>
      <rect width="50" height="50" rx="8.71" ry="8.71"/>
      <path class="cls-1" d="M7.5,23c0-.76.15-1.38.44-1.84.3-.45.74-.97,1.35-1.56l4.28-4.25c.39-.41.74-.74,1.07-1.01.32-.26.67-.45,1.01-.59.36-.14.79-.2,1.3-.2h14.58v16.88c0,.42.14.77.42,1.04.27.27.62.41,1.03.41h4.94V13.54h4.58v22.91h-6.11c-.76,0-1.38-.15-1.84-.44-.45-.3-.98-.74-1.56-1.35l-4.26-4.26c-.39-.39-.73-.76-1-1.09-.26-.32-.47-.67-.59-1.01-.14-.36-.2-.79-.2-1.3v-8.88h-13.41c-.41,0-.76.14-1.03.41-.29.27-.42.62-.42,1.04v16.88h-4.58v-13.46Z"/>
    </g>
  </g>
</svg>