<svg width="201" height="79" viewBox="0 0 201 79" fill="none" xmlns="http://www.w3.org/2000/svg">
<path d="M38.9776 0H15.5842C11.2817 0 7.79419 3.48746 7.79419 7.79H38.9776V38.9066C43.2801 38.9066 46.7676 35.4191 46.7676 31.1166V0H38.9776Z" fill="#903CF5"/>
<path d="M7.79 7.79004C3.48746 7.79004 0 11.8788 0 16.1847V46.7H31.1834C35.4859 46.7 38.9734 43.2125 38.9734 38.91H7.79V7.79004Z" fill="#903CF5"/>
<path d="M62.2625 77.6629V57.0488H69.0804C70.5034 57.0488 71.8396 57.316 73.0856 57.8505C74.3316 58.385 75.4273 59.1265 76.3693 60.0752C77.3113 61.0239 78.0496 62.1163 78.584 63.3589C79.1185 64.6016 79.3858 65.9344 79.3858 67.3575C79.3858 68.7805 79.1185 70.1134 78.584 71.356C78.0496 72.5987 77.3113 73.691 76.3693 74.6397C75.4273 75.5884 74.3316 76.3267 73.0856 76.8645C71.8396 77.399 70.5034 77.6662 69.0804 77.6662H62.2625V77.6629ZM63.8525 76.0728H69.0804C70.2863 76.0728 71.4154 75.8456 72.4676 75.3947C73.5165 74.9437 74.4418 74.3191 75.2436 73.5173C76.0419 72.719 76.6699 71.7936 77.1209 70.7414C77.5719 69.6925 77.799 68.5634 77.799 67.3542C77.799 66.1449 77.5719 65.0192 77.1209 63.9669C76.6699 62.918 76.0419 61.9927 75.2369 61.191C74.4318 60.3892 73.5032 59.7646 72.4543 59.3136C71.4053 58.8626 70.2796 58.6355 69.0837 58.6355H63.8559V76.0695L63.8525 76.0728Z" fill="white"/>
<path d="M94.3325 62.9413H95.9225V77.6661H94.3325L94.289 74.6463C93.788 75.6685 93.0731 76.4903 92.1478 77.1116C91.2191 77.7363 90.1101 78.0469 88.814 78.0469C87.745 78.0469 86.7396 77.8432 85.8042 77.4356C84.8655 77.0281 84.0404 76.4702 83.3222 75.7587C82.604 75.0472 82.0462 74.2221 81.642 73.2868C81.2378 72.3481 81.0374 71.3393 81.0374 70.2603C81.0374 69.1813 81.2344 68.1892 81.6353 67.2572C82.0328 66.3252 82.584 65.5034 83.2922 64.7919C84.0004 64.0804 84.8188 63.5259 85.7508 63.1284C86.6828 62.7308 87.6782 62.5338 88.7405 62.5338C90.0466 62.5338 91.1757 62.8511 92.1344 63.4824C93.0931 64.1171 93.8414 64.9422 94.3792 65.9644L94.3358 62.9446L94.3325 62.9413ZM88.7973 76.4869C89.9264 76.4869 90.8951 76.2097 91.7068 75.6552C92.5152 75.1006 93.1366 74.3524 93.5708 73.4104C94.0018 72.4683 94.2189 71.4328 94.2189 70.3037C94.2189 69.1746 94.0018 68.099 93.5642 67.1603C93.1266 66.2216 92.5052 65.4767 91.6935 64.9222C90.8851 64.3677 89.9197 64.0904 88.8006 64.0904C87.6816 64.0904 86.6293 64.371 85.7007 64.9289C84.772 65.4867 84.0338 66.2383 83.4859 67.1804C82.9381 68.1224 82.6608 69.1646 82.6608 70.3004C82.6608 71.4361 82.9414 72.5051 83.506 73.4371C84.0705 74.3691 84.8188 75.1107 85.7508 75.6618C86.6828 76.213 87.6983 76.4869 88.7973 76.4869Z" fill="white"/>
<path d="M103.475 77.9435C102.66 77.9334 101.861 77.7898 101.083 77.5092C100.305 77.2286 99.6232 76.8545 99.0453 76.3835C98.4674 75.9124 98.0632 75.378 97.8394 74.78L99.239 74.1754C99.406 74.6163 99.7267 75.0139 100.204 75.3679C100.679 75.722 101.22 75.9993 101.825 76.1997C102.429 76.4002 103.02 76.5004 103.598 76.5004C104.256 76.5004 104.874 76.3868 105.452 76.163C106.03 75.9358 106.501 75.6185 106.865 75.2043C107.229 74.7934 107.41 74.3057 107.41 73.7478C107.41 73.1599 107.219 72.6956 106.835 72.3548C106.451 72.0174 105.963 71.7402 105.369 71.5297C104.774 71.3193 104.163 71.1189 103.535 70.9318C102.456 70.6178 101.521 70.2971 100.729 69.9664C99.9372 69.6357 99.3292 69.2181 98.8949 68.707C98.4607 68.1959 98.2469 67.5245 98.2469 66.6894C98.2469 65.8543 98.4974 65.0759 98.9985 64.4379C99.4996 63.7999 100.158 63.3055 100.973 62.9581C101.788 62.6107 102.66 62.437 103.595 62.437C104.801 62.437 105.9 62.7008 106.885 63.232C107.871 63.7631 108.566 64.4579 108.97 65.3231L107.674 66.0881C107.477 65.6371 107.169 65.2496 106.745 64.9256C106.321 64.6016 105.843 64.351 105.302 64.174C104.761 63.997 104.216 63.9034 103.668 63.8934C102.98 63.8834 102.342 63.9903 101.748 64.2107C101.153 64.4312 100.675 64.7519 100.311 65.1695C99.9472 65.587 99.7668 66.0881 99.7668 66.6794C99.7668 67.2706 99.9338 67.7183 100.268 68.0323C100.602 68.3463 101.066 68.6001 101.668 68.7905C102.265 68.9809 102.957 69.2048 103.742 69.462C104.654 69.7459 105.506 70.0633 106.297 70.4107C107.089 70.7581 107.727 71.1923 108.212 71.7135C108.699 72.2346 108.936 72.906 108.926 73.7311C108.926 74.5963 108.669 75.3446 108.155 75.9826C107.64 76.6206 106.966 77.1117 106.137 77.4557C105.309 77.7998 104.423 77.9602 103.478 77.9401L103.475 77.9435Z" fill="white"/>
<path d="M124.101 68.6101V77.6662H122.511V68.8607C122.511 67.9888 122.301 67.1938 121.877 66.4756C121.456 65.7607 120.885 65.1895 120.17 64.7686C119.452 64.3477 118.656 64.1339 117.785 64.1339C116.913 64.1339 116.131 64.3444 115.413 64.7686C114.695 65.1895 114.123 65.7607 113.699 66.4756C113.272 67.1938 113.058 67.9888 113.058 68.8607V77.6662H111.468V55.5823H113.058V65.1962C113.589 64.3811 114.29 63.733 115.162 63.252C116.034 62.771 116.986 62.5305 118.018 62.5305C119.148 62.5305 120.17 62.8044 121.088 63.3489C122.007 63.8934 122.739 64.6283 123.283 65.5503C123.828 66.4722 124.101 67.4944 124.101 68.6135V68.6101Z" fill="white"/>
<path d="M134.421 62.5271C135.844 62.5271 137.144 62.8745 138.316 63.5727C139.489 64.2708 140.424 65.2062 141.122 66.3787C141.82 67.5512 142.168 68.854 142.168 70.2871C142.168 71.356 141.967 72.3615 141.563 73.2968C141.159 74.2355 140.605 75.0573 139.893 75.7688C139.182 76.4803 138.36 77.0382 137.428 77.439C136.496 77.8399 135.494 78.0437 134.425 78.0437C133.119 78.0437 131.996 77.7296 131.061 77.1016C130.122 76.4736 129.394 75.6485 128.873 74.6297V77.6628H127.283V55.5789H128.873V65.9444C129.394 64.9222 130.122 64.1005 131.061 63.4725C131.999 62.8445 133.119 62.5305 134.425 62.5305L134.421 62.5271ZM134.408 76.4836C135.547 76.4836 136.579 76.203 137.508 75.6452C138.437 75.0873 139.178 74.3357 139.733 73.4004C140.287 72.4617 140.564 71.4262 140.564 70.2871C140.564 69.148 140.281 68.0823 139.709 67.1437C139.138 66.205 138.39 65.4634 137.465 64.9122C136.536 64.361 135.517 64.0871 134.408 64.0871C133.299 64.0871 132.31 64.3677 131.498 64.9256C130.69 65.4834 130.069 66.2351 129.634 67.1771C129.2 68.1191 128.986 69.1546 128.986 70.2837C128.986 71.4128 129.203 72.4884 129.641 73.4204C130.079 74.3524 130.7 75.0973 131.512 75.6519C132.324 76.2064 133.286 76.4836 134.405 76.4836H134.408Z" fill="white"/>
<path d="M151 78.047C149.644 78.047 148.411 77.6996 147.299 77.0015C146.183 76.3033 145.298 75.3713 144.633 74.1955C143.972 73.023 143.638 71.7235 143.638 70.3005C143.638 69.2215 143.828 68.2127 144.213 67.274C144.597 66.3353 145.124 65.5136 145.796 64.802C146.467 64.0905 147.252 63.5326 148.144 63.1318C149.036 62.7309 149.988 62.5272 151 62.5272C152.353 62.5272 153.589 62.8746 154.702 63.5727C155.814 64.2709 156.703 65.2062 157.367 66.3854C158.029 67.5646 158.359 68.8674 158.359 70.3005C158.359 71.3694 158.169 72.3716 157.785 73.3036C157.401 74.2355 156.873 75.0573 156.201 75.7688C155.53 76.4804 154.748 77.0382 153.86 77.4391C152.971 77.8399 152.016 78.0437 150.997 78.0437L151 78.047ZM151 76.457C152.089 76.457 153.068 76.173 153.937 75.6018C154.805 75.0306 155.493 74.2823 156.004 73.3503C156.515 72.4183 156.769 71.4028 156.769 70.3038C156.769 69.2048 156.515 68.1692 156.004 67.2272C155.493 66.2852 154.802 65.5303 153.93 64.9657C153.055 64.4012 152.079 64.1206 151 64.1206C149.921 64.1206 148.929 64.4045 148.054 64.9757C147.179 65.5436 146.491 66.2986 145.986 67.2372C145.482 68.1759 145.228 69.1981 145.228 70.3071C145.228 71.4162 145.492 72.4918 146.016 73.4205C146.541 74.3491 147.242 75.0874 148.114 75.6352C148.986 76.1864 149.948 76.4603 151 76.4603V76.457Z" fill="white"/>
<path d="M173.13 62.9413H174.72V77.6661H173.13L173.087 74.6463C172.586 75.6685 171.871 76.4903 170.946 77.1116C170.017 77.7363 168.908 78.0469 167.612 78.0469C166.543 78.0469 165.537 77.8432 164.602 77.4356C163.663 77.0281 162.838 76.4702 162.12 75.7587C161.402 75.0472 160.844 74.2221 160.44 73.2868C160.036 72.3481 159.835 71.3393 159.835 70.2603C159.835 69.1813 160.032 68.1892 160.433 67.2572C160.831 66.3252 161.382 65.5034 162.09 64.7919C162.798 64.0804 163.617 63.5259 164.549 63.1284C165.481 62.7308 166.476 62.5338 167.538 62.5338C168.844 62.5338 169.974 62.8511 170.932 63.4824C171.891 64.1171 172.639 64.9422 173.177 65.9644L173.134 62.9446L173.13 62.9413ZM167.595 76.4869C168.724 76.4869 169.693 76.2097 170.505 75.6552C171.313 75.1006 171.934 74.3524 172.369 73.4104C172.8 72.4683 173.017 71.4328 173.017 70.3037C173.017 69.1746 172.8 68.099 172.362 67.1603C171.924 66.2216 171.303 65.4767 170.491 64.9222C169.683 64.3677 168.718 64.0904 167.598 64.0904C166.479 64.0904 165.427 64.371 164.499 64.9289C163.57 65.4867 162.832 66.2383 162.284 67.1804C161.736 68.1224 161.459 69.1646 161.459 70.3004C161.459 71.4361 161.739 72.5051 162.304 73.4371C162.868 74.3691 163.617 75.1107 164.549 75.6618C165.481 76.213 166.496 76.4869 167.595 76.4869Z" fill="white"/>
<path d="M177.663 77.6629V62.938H179.253V65.1895C179.784 64.3744 180.486 63.7264 181.358 63.2453C182.23 62.7643 183.182 62.5238 184.214 62.5238C184.792 62.5238 185.346 62.5973 185.877 62.7443L185.216 64.3043C184.795 64.1874 184.381 64.1272 183.98 64.1272C183.115 64.1272 182.326 64.3377 181.608 64.7619C180.89 65.1828 180.319 65.754 179.895 66.4689C179.467 67.1871 179.253 67.9821 179.253 68.854V77.6595H177.663V77.6629Z" fill="white"/>
<path d="M199.41 55.5789H201V77.6628H199.41V74.6297C198.899 75.6619 198.174 76.487 197.232 77.1117C196.29 77.7363 195.164 78.047 193.861 78.047C192.792 78.047 191.79 77.8466 190.858 77.4424C189.926 77.0415 189.104 76.4836 188.393 75.7721C187.681 75.0606 187.123 74.2388 186.723 73.3068C186.318 72.3748 186.118 71.3727 186.118 70.3038C186.118 69.2348 186.318 68.2293 186.723 67.294C187.127 66.3553 187.681 65.5335 188.393 64.822C189.104 64.1105 189.926 63.5526 190.858 63.1518C191.79 62.7509 192.792 62.5472 193.861 62.5472C195.167 62.5472 196.29 62.8578 197.232 63.4825C198.174 64.1072 198.902 64.9289 199.41 65.9478V55.5823V55.5789ZM193.875 76.487C195.004 76.487 195.972 76.2097 196.784 75.6552C197.592 75.1007 198.214 74.3524 198.648 73.4104C199.079 72.4684 199.296 71.4328 199.296 70.3038C199.296 69.1747 199.079 68.099 198.641 67.1604C198.204 66.2217 197.582 65.4768 196.771 64.9222C195.962 64.3677 194.997 64.0905 193.878 64.0905C192.759 64.0905 191.72 64.3711 190.795 64.9289C189.866 65.4868 189.124 66.2384 188.57 67.1804C188.015 68.1224 187.738 69.1646 187.738 70.3004C187.738 71.4362 188.019 72.5051 188.583 73.4371C189.148 74.3691 189.896 75.1107 190.828 75.6619C191.76 76.2131 192.776 76.487 193.875 76.487Z" fill="white"/>
<path d="M68.1094 13.0279H62.1333V41.5021H68.1094V13.0279Z" fill="white"/>
<path d="M139.641 6.37032C137.817 4.44955 135.676 2.92629 133.274 1.84063C130.872 0.754976 128.264 0.203796 125.514 0.203796C122.765 0.203796 120.186 0.754976 117.784 1.84063C115.386 2.92629 113.245 4.44955 111.417 6.37032C109.594 8.2911 108.144 10.5426 107.108 13.068C106.073 15.5934 105.545 18.3326 105.545 21.2121C105.545 24.0916 106.069 26.8308 107.108 29.3562C108.144 31.8816 109.597 34.1331 111.417 36.0538C113.241 37.9746 115.386 39.4979 117.784 40.5835C120.186 41.6692 122.785 42.2204 125.514 42.2204C128.243 42.2204 130.869 41.6692 133.274 40.5835C135.673 39.4979 137.814 37.9746 139.641 36.0538C141.465 34.1364 142.912 31.8816 143.937 29.3562C144.963 26.8308 145.484 24.0916 145.484 21.2121C145.484 18.3326 144.963 15.5934 143.937 13.068C142.908 10.5426 141.465 8.2911 139.641 6.37032ZM138.232 26.921C137.52 28.6981 136.518 30.2848 135.255 31.6444C133.992 33.0006 132.516 34.0863 130.862 34.8646C129.212 35.643 127.415 36.0371 125.518 36.0371C123.62 36.0371 121.823 35.6463 120.173 34.878C118.519 34.1097 117.043 33.0307 115.783 31.6745C114.521 30.3182 113.519 28.7282 112.807 26.951C112.096 25.1772 111.735 23.2464 111.735 21.2121C111.735 19.1777 112.096 17.277 112.807 15.5032C113.519 13.7261 114.521 12.136 115.783 10.7798C117.046 9.42352 118.523 8.34121 120.176 7.55953C121.826 6.7812 123.627 6.38703 125.521 6.38703C127.415 6.38703 129.216 6.77786 130.866 7.54617C132.516 8.31448 133.996 9.39346 135.258 10.7497C136.521 12.1059 137.523 13.6993 138.235 15.4865C138.946 17.2737 139.307 19.1978 139.307 21.2121C139.307 23.2264 138.946 25.1472 138.235 26.921H138.232Z" fill="white"/>
<path d="M68.1094 2.13458H62.1333V8.1107H68.1094V2.13458Z" fill="white"/>
<path d="M95.19 17.5241C94.3148 16.2548 93.1958 15.2058 91.8562 14.4008C90.7539 13.7394 89.4945 13.3218 88.1049 13.1581C87.6539 13.1047 87.1896 13.078 86.7119 13.078C84.7076 13.078 82.8069 13.4588 81.0598 14.2137C79.3161 14.9653 77.7527 16.0243 76.4232 17.3571C75.0903 18.69 74.0348 20.2533 73.2798 22.0104C72.5249 23.7642 72.144 25.6716 72.144 27.6759C72.144 28.1435 72.1674 28.6012 72.2075 29.0555C72.3445 30.5554 72.7019 31.9851 73.2798 33.3246C74.0348 35.0717 75.0903 36.6317 76.4232 37.9612C77.756 39.2941 79.3161 40.3496 81.0598 41.1046C82.8069 41.8595 84.7076 42.2404 86.7119 42.2404C88.7162 42.2404 90.3964 41.7961 91.8562 40.9175C93.1958 40.1125 94.3148 39.0569 95.19 37.7708V41.5255H101.143V0.120239L95.19 6.07298V17.5208V17.5241ZM93.7068 32.1254C93.0521 33.4549 92.1168 34.5238 90.9342 35.3055C89.7517 36.0839 88.3521 36.4814 86.772 36.4814C85.192 36.4814 83.819 36.0839 82.5363 35.3022C81.2502 34.5205 80.2013 33.4549 79.4196 32.1321C78.6379 30.8126 78.2404 29.3127 78.2404 27.6759C78.2404 26.039 78.6279 24.5625 79.3929 23.233C80.1579 21.9035 81.1967 20.8245 82.4828 20.0362C83.7656 19.2445 85.2087 18.847 86.772 18.847C88.3354 18.847 89.7484 19.2411 90.9209 20.0228C92.0967 20.8045 93.0287 21.8734 93.6935 23.203C94.3582 24.5358 94.6956 26.0424 94.6956 27.6792C94.6956 29.316 94.3616 30.7992 93.7068 32.1287V32.1254Z" fill="white"/>
<path d="M167.3 18.2056C166.362 17.925 165.353 17.6578 164.26 17.3972C163.893 17.3104 163.542 17.2202 163.202 17.1333C160.843 16.5287 157.83 15.8606 156.09 13.9933C154.516 12.303 154.61 9.77423 155.829 7.91024C157.346 5.59194 160.208 4.98732 162.814 4.98732C167.481 4.98732 169.903 7.01499 171.115 9.21971L175.221 5.11426C172.909 2.2381 168.997 0.156982 163.068 0.156982C153.153 0.156982 148.978 5.60865 148.978 11.2474C148.978 15.9575 150.842 19.1343 158.682 21.6563C159.834 22.0271 161.117 22.3845 162.543 22.7286C162.607 22.7453 162.667 22.7587 162.731 22.7754C165.443 23.4401 168.73 24.1617 170.838 26.1426C172.341 27.5523 172.769 29.7737 172.415 31.7512C171.706 35.7331 167.183 36.9457 163.699 36.9457C158.689 36.9457 155.468 35.222 153.918 31.5842L149.562 35.9402C152.084 39.7951 156.648 42.217 163.526 42.217C173.013 42.217 178.711 37.2898 178.711 30.1645C178.711 24.7262 176.6 20.9749 167.297 18.2089L167.3 18.2056Z" fill="white"/>
</svg>
