<svg width="145" height="56" viewBox="0 0 145 56" fill="none" xmlns="http://www.w3.org/2000/svg">
<path d="M27.9664 0H11.1812C8.0941 0 5.5918 2.50231 5.5918 5.58944H27.9664V27.9161C31.0535 27.9161 33.5558 25.4138 33.5558 22.3266V0H27.9664Z" fill="#00FFB9"/>
<path d="M5.58944 5.58936C2.50231 5.58936 0 8.52309 0 11.6126V33.5078H22.3746C25.4617 33.5078 27.964 31.0055 27.964 27.9184H5.58944V5.58936Z" fill="#00FFB9"/>
<path d="M44.6748 55.7245V40.9336H49.5668C50.5878 40.9336 51.5466 41.1253 52.4406 41.5088C53.3346 41.8923 54.1208 42.4244 54.7967 43.1051C55.4726 43.7858 56.0023 44.5696 56.3858 45.4612C56.7693 46.3529 56.961 47.3092 56.961 48.3303C56.961 49.3513 56.7693 50.3077 56.3858 51.1993C56.0023 52.0909 55.4726 52.8747 54.7967 53.5554C54.1208 54.2361 53.3346 54.7658 52.4406 55.1517C51.5466 55.5352 50.5878 55.7269 49.5668 55.7269H44.6748V55.7245ZM45.8157 54.5836H49.5668C50.432 54.5836 51.2422 54.4206 51.9972 54.0971C52.7498 53.7735 53.4137 53.3253 53.9889 52.75C54.5618 52.1772 55.0124 51.5133 55.336 50.7583C55.6595 50.0057 55.8225 49.1955 55.8225 48.3279C55.8225 47.4602 55.6595 46.6525 55.336 45.8975C55.0124 45.1449 54.5618 44.4809 53.9842 43.9057C53.4065 43.3304 52.7402 42.8822 51.9876 42.5587C51.235 42.2351 50.4272 42.0721 49.5692 42.0721H45.8181V54.5812L45.8157 54.5836Z" fill="white"/>
<path d="M67.6859 45.1616H68.8268V55.7269H67.6859L67.6548 53.5601C67.2952 54.2935 66.7823 54.8832 66.1184 55.329C65.4521 55.7772 64.6563 56.0001 63.7263 56.0001C62.9594 56.0001 62.2379 55.8539 61.5668 55.5615C60.8933 55.2691 60.3012 54.8688 59.7859 54.3583C59.2706 53.8477 58.8703 53.2557 58.5803 52.5846C58.2903 51.9111 58.1465 51.1872 58.1465 50.413C58.1465 49.6389 58.2879 48.927 58.5755 48.2583C58.8607 47.5896 59.2562 46.9999 59.7644 46.4894C60.2725 45.9789 60.8597 45.581 61.5284 45.2958C62.1972 45.0106 62.9114 44.8691 63.6736 44.8691C64.6108 44.8691 65.4209 45.0968 66.1088 45.5498C66.7967 46.0052 67.3336 46.5973 67.7195 47.3307L67.6883 45.164L67.6859 45.1616ZM63.7144 54.8808C64.5245 54.8808 65.2196 54.6818 65.802 54.2839C66.382 53.8861 66.8279 53.3492 67.1394 52.6733C67.4486 51.9974 67.6044 51.2543 67.6044 50.4442C67.6044 49.6341 67.4486 48.8623 67.1347 48.1888C66.8207 47.5153 66.3749 46.9808 65.7924 46.5829C65.2124 46.185 64.5197 45.9861 63.7168 45.9861C62.9138 45.9861 62.1588 46.1874 61.4925 46.5877C60.8262 46.988 60.2965 47.5272 59.9034 48.2032C59.5103 48.8791 59.3114 49.6269 59.3114 50.4418C59.3114 51.2567 59.5127 52.0237 59.9178 52.6924C60.3228 53.3612 60.8597 53.8933 61.5284 54.2887C62.1972 54.6842 62.9258 54.8808 63.7144 54.8808Z" fill="white"/>
<path d="M74.2437 55.926C73.6588 55.9188 73.086 55.8157 72.5275 55.6144C71.9691 55.413 71.4801 55.1446 71.0655 54.8066C70.6508 54.4687 70.3608 54.0852 70.2002 53.6561L71.2045 53.2223C71.3243 53.5387 71.5544 53.8239 71.8972 54.078C72.2375 54.3321 72.6258 54.531 73.0596 54.6748C73.4935 54.8186 73.9177 54.8905 74.3324 54.8905C74.8045 54.8905 75.2479 54.809 75.6626 54.6484C76.0773 54.4855 76.4152 54.2578 76.6765 53.9605C76.9377 53.6657 77.0672 53.3158 77.0672 52.9155C77.0672 52.4937 76.9305 52.1605 76.6549 51.916C76.3793 51.674 76.0293 51.475 75.6027 51.324C75.176 51.173 74.7374 51.0292 74.2868 50.895C73.5126 50.6697 72.8415 50.4396 72.2735 50.2023C71.7054 49.965 71.2692 49.6654 70.9576 49.2987C70.646 48.932 70.4926 48.4502 70.4926 47.851C70.4926 47.2518 70.6724 46.6933 71.0319 46.2355C71.3914 45.7777 71.8636 45.423 72.4484 45.1737C73.0333 44.9244 73.6588 44.7998 74.33 44.7998C75.1952 44.7998 75.9838 44.9892 76.6909 45.3703C77.3979 45.7513 77.8965 46.2499 78.1865 46.8707L77.2565 47.4196C77.1151 47.096 76.8946 46.8179 76.5902 46.5855C76.2858 46.353 75.943 46.1732 75.5547 46.0462C75.1665 45.9191 74.7758 45.852 74.3827 45.8448C73.8889 45.8376 73.4311 45.9143 73.0045 46.0725C72.5779 46.2307 72.2351 46.4608 71.9739 46.7604C71.7126 47.06 71.5832 47.4196 71.5832 47.8438C71.5832 48.268 71.703 48.5892 71.9427 48.8145C72.1824 49.0398 72.5155 49.222 72.947 49.3586C73.376 49.4952 73.8722 49.6558 74.4354 49.8404C75.0898 50.0441 75.701 50.2718 76.269 50.5211C76.8371 50.7703 77.2949 51.0819 77.6424 51.4558C77.9923 51.8297 78.1625 52.3115 78.1553 52.9035C78.1553 53.5243 77.9708 54.0612 77.6016 54.519C77.2325 54.9768 76.7484 55.3291 76.154 55.576C75.5595 55.8229 74.9244 55.9379 74.2461 55.9236L74.2437 55.926Z" fill="white"/>
<path d="M89.0444 49.229V55.7269H87.9035V49.4088C87.9035 48.7832 87.7525 48.2128 87.4481 47.6975C87.1461 47.1845 86.7362 46.7747 86.2233 46.4727C85.708 46.1707 85.1375 46.0173 84.5119 46.0173C83.8864 46.0173 83.3255 46.1683 82.8102 46.4727C82.2948 46.7747 81.885 47.1845 81.5806 47.6975C81.2738 48.2128 81.1204 48.7832 81.1204 49.4088V55.7269H79.9795V39.8813H81.1204V46.7795C81.5015 46.1946 82.0048 45.7297 82.6304 45.3845C83.256 45.0394 83.9391 44.8668 84.6797 44.8668C85.4898 44.8668 86.2233 45.0633 86.8824 45.454C87.5415 45.8447 88.0664 46.372 88.4571 47.0335C88.8478 47.6951 89.0444 48.4285 89.0444 49.2314V49.229Z" fill="white"/>
<path d="M96.4492 44.8643C97.4703 44.8643 98.4026 45.1136 99.2439 45.6146C100.085 46.1155 100.756 46.7866 101.257 47.6279C101.758 48.4692 102.007 49.404 102.007 50.4322C102.007 51.1992 101.864 51.9207 101.574 52.5918C101.284 53.2653 100.886 53.8549 100.375 54.3654C99.8647 54.876 99.2751 55.2762 98.6064 55.5639C97.9376 55.8515 97.2186 55.9977 96.4516 55.9977C95.5144 55.9977 94.7091 55.7724 94.038 55.3218C93.3645 54.8712 92.842 54.2792 92.468 53.5481V55.7245H91.3271V39.8789H92.468V47.3163C92.842 46.5829 93.3645 45.9933 94.038 45.5426C94.7115 45.092 95.5144 44.8667 96.4516 44.8667L96.4492 44.8643ZM96.4396 54.8784C97.2569 54.8784 97.9976 54.677 98.6639 54.2768C99.3302 53.8765 99.8623 53.3372 100.26 52.6661C100.658 51.9926 100.857 51.2495 100.857 50.4322C100.857 49.6149 100.653 48.8503 100.243 48.1768C99.8336 47.5033 99.2967 46.9712 98.6327 46.5757C97.9664 46.1802 97.2354 45.9837 96.4396 45.9837C95.6439 45.9837 94.9344 46.185 94.352 46.5853C93.7719 46.9856 93.3261 47.5248 93.0145 48.2008C92.7029 48.8767 92.5495 49.6197 92.5495 50.4298C92.5495 51.24 92.7053 52.0117 93.0193 52.6805C93.3333 53.3492 93.7791 53.8837 94.3616 54.2816C94.944 54.6794 95.6343 54.8784 96.4372 54.8784H96.4396Z" fill="white"/>
<path d="M108.344 56C107.371 56 106.487 55.7507 105.688 55.2498C104.888 54.7488 104.253 54.0801 103.776 53.2364C103.301 52.3951 103.062 51.4628 103.062 50.4417C103.062 49.6675 103.198 48.9437 103.474 48.2702C103.749 47.5967 104.128 47.007 104.61 46.4965C105.092 45.986 105.655 45.5857 106.295 45.2981C106.935 45.0105 107.618 44.8643 108.344 44.8643C109.315 44.8643 110.202 45.1135 111 45.6145C111.798 46.1154 112.436 46.7865 112.913 47.6326C113.387 48.4787 113.624 49.4135 113.624 50.4417C113.624 51.2087 113.488 51.9278 113.212 52.5965C112.937 53.2652 112.558 53.8548 112.076 54.3654C111.594 54.8759 111.033 55.2762 110.396 55.5638C109.758 55.8514 109.073 55.9976 108.342 55.9976L108.344 56ZM108.344 54.8591C109.126 54.8591 109.828 54.6554 110.451 54.2455C111.074 53.8357 111.568 53.2988 111.935 52.63C112.301 51.9613 112.484 51.2327 112.484 50.4441C112.484 49.6556 112.301 48.9125 111.935 48.2366C111.568 47.5607 111.072 47.019 110.446 46.614C109.818 46.2089 109.118 46.0076 108.344 46.0076C107.57 46.0076 106.858 46.2113 106.23 46.6211C105.602 47.0286 105.108 47.5703 104.747 48.2438C104.385 48.9173 104.202 49.6508 104.202 50.4465C104.202 51.2423 104.392 52.014 104.768 52.6804C105.144 53.3467 105.648 53.8764 106.273 54.2695C106.899 54.665 107.589 54.8615 108.344 54.8615V54.8591Z" fill="white"/>
<path d="M124.224 45.1616H125.365V55.7269H124.224L124.193 53.5601C123.833 54.2935 123.32 54.8832 122.656 55.329C121.99 55.7772 121.194 56.0001 120.264 56.0001C119.497 56.0001 118.776 55.8539 118.105 55.5615C117.431 55.2691 116.839 54.8688 116.324 54.3583C115.809 53.8477 115.408 53.2557 115.118 52.5846C114.828 51.9111 114.685 51.1872 114.685 50.413C114.685 49.6389 114.826 48.927 115.114 48.2583C115.399 47.5896 115.794 46.9999 116.302 46.4894C116.811 45.9789 117.398 45.581 118.067 45.2958C118.735 45.0106 119.449 44.8691 120.212 44.8691C121.149 44.8691 121.959 45.0968 122.647 45.5498C123.335 46.0052 123.872 46.5973 124.258 47.3307L124.226 45.164L124.224 45.1616ZM120.252 54.8808C121.063 54.8808 121.758 54.6818 122.34 54.2839C122.92 53.8861 123.366 53.3492 123.678 52.6733C123.987 51.9974 124.143 51.2543 124.143 50.4442C124.143 49.6341 123.987 48.8623 123.673 48.1888C123.359 47.5153 122.913 46.9808 122.331 46.5829C121.75 46.185 121.058 45.9861 120.255 45.9861C119.452 45.9861 118.697 46.1874 118.031 46.5877C117.364 46.988 116.835 47.5272 116.441 48.2032C116.048 48.8791 115.849 49.6269 115.849 50.4418C115.849 51.2567 116.051 52.0237 116.456 52.6924C116.861 53.3612 117.398 53.8933 118.067 54.2887C118.735 54.6842 119.464 54.8808 120.252 54.8808Z" fill="white"/>
<path d="M127.477 55.7243V45.159H128.617V46.7745C128.999 46.1897 129.502 45.7247 130.127 45.3795C130.753 45.0344 131.436 44.8618 132.177 44.8618C132.591 44.8618 132.989 44.9145 133.37 45.02L132.896 46.1393C132.594 46.0554 132.297 46.0123 132.009 46.0123C131.388 46.0123 130.823 46.1633 130.307 46.4677C129.792 46.7697 129.382 47.1796 129.078 47.6925C128.771 48.2078 128.617 48.7783 128.617 49.4038V55.7219H127.477V55.7243Z" fill="white"/>
<path d="M143.079 39.8789H144.22V55.7245H143.079V53.5481C142.712 54.2887 142.192 54.8808 141.516 55.329C140.84 55.7772 140.033 56.0001 139.098 56.0001C138.331 56.0001 137.612 55.8563 136.943 55.5663C136.274 55.2786 135.685 54.8784 135.174 54.3678C134.664 53.8573 134.263 53.2677 133.976 52.599C133.686 51.9302 133.542 51.2112 133.542 50.4442C133.542 49.6772 133.686 48.9558 133.976 48.2846C134.266 47.6111 134.664 47.0215 135.174 46.511C135.685 46.0004 136.274 45.6002 136.943 45.3126C137.612 45.0249 138.331 44.8787 139.098 44.8787C140.035 44.8787 140.84 45.1016 141.516 45.5498C142.192 45.998 142.715 46.5877 143.079 47.3187V39.8813V39.8789ZM139.107 54.8808C139.918 54.8808 140.613 54.6818 141.195 54.2839C141.775 53.8861 142.221 53.3492 142.533 52.6733C142.842 51.9974 142.998 51.2543 142.998 50.4442C142.998 49.6341 142.842 48.8623 142.528 48.1888C142.214 47.5153 141.768 46.9808 141.186 46.5829C140.606 46.185 139.913 45.9861 139.11 45.9861C138.307 45.9861 137.562 46.1874 136.898 46.5877C136.231 46.9879 135.699 47.5272 135.301 48.2031C134.903 48.8791 134.704 49.6269 134.704 50.4418C134.704 51.2567 134.906 52.0237 135.311 52.6924C135.716 53.3612 136.253 53.8933 136.922 54.2887C137.59 54.6842 138.319 54.8808 139.107 54.8808Z" fill="white"/>
<path d="M48.869 9.34766H44.5811V29.7784H48.869V9.34766Z" fill="white"/>
<path d="M100.196 4.57057C98.8874 3.19239 97.351 2.09943 95.6277 1.32045C93.9043 0.541476 92.0324 0.145996 90.0598 0.145996C88.0872 0.145996 86.2368 0.541476 84.5135 1.32045C82.7926 2.09943 81.2562 3.19239 79.9451 4.57057C78.6364 5.94876 77.5962 7.56423 76.8532 9.37625C76.1102 11.1883 75.7314 13.1537 75.7314 15.2198C75.7314 17.2858 76.1078 19.2513 76.8532 21.0633C77.5962 22.8753 78.6388 24.4908 79.9451 25.8689C81.2538 27.2471 82.7926 28.3401 84.5135 29.1191C86.2368 29.898 88.1016 30.2935 90.0598 30.2935C92.018 30.2935 93.9019 29.898 95.6277 29.1191C97.3486 28.3401 98.885 27.2471 100.196 25.8689C101.505 24.4932 102.543 22.8753 103.278 21.0633C104.014 19.2513 104.388 17.2858 104.388 15.2198C104.388 13.1537 104.014 11.1883 103.278 9.37625C102.54 7.56423 101.505 5.94876 100.196 4.57057ZM99.1846 19.316C98.674 20.5911 97.955 21.7296 97.049 22.7051C96.143 23.6782 95.0836 24.4572 93.8971 25.0157C92.7131 25.5741 91.4236 25.857 90.0622 25.857C88.7008 25.857 87.4113 25.5765 86.2272 25.0253C85.0408 24.474 83.9814 23.6998 83.0778 22.7267C82.1718 21.7536 81.4527 20.6127 80.9422 19.3375C80.4317 18.0648 80.1728 16.6794 80.1728 15.2198C80.1728 13.7601 80.4317 12.3963 80.9422 11.1235C81.4527 9.84843 82.1718 8.70753 83.0778 7.73441C83.9838 6.76129 85.0432 5.98471 86.2296 5.42385C87.4137 4.86538 88.7056 4.58256 90.0646 4.58256C91.4236 4.58256 92.7155 4.86299 93.8995 5.41426C95.0836 5.96554 96.1454 6.73972 97.0514 7.71284C97.9574 8.68596 98.6764 9.82925 99.187 11.1116C99.6975 12.3939 99.9564 13.7745 99.9564 15.2198C99.9564 16.6651 99.6975 18.0432 99.187 19.316H99.1846Z" fill="white"/>
<path d="M48.869 1.53125H44.5811V5.81921H48.869V1.53125Z" fill="white"/>
<path d="M68.3005 12.574C67.6725 11.6632 66.8696 10.9106 65.9084 10.3329C65.1175 9.85836 64.2139 9.55876 63.2168 9.44131C62.8932 9.40296 62.56 9.38379 62.2173 9.38379C60.7792 9.38379 59.4154 9.65703 58.1618 10.1987C56.9107 10.738 55.789 11.4978 54.835 12.4541C53.8787 13.4105 53.1213 14.5322 52.5796 15.793C52.0379 17.0513 51.7646 18.4199 51.7646 19.858C51.7646 20.1936 51.7814 20.5219 51.8102 20.8479C51.9085 21.9241 52.1649 22.9499 52.5796 23.9111C53.1213 25.1646 53.8787 26.2839 54.835 27.2379C55.7913 28.1942 56.9107 28.9516 58.1618 29.4933C59.4154 30.035 60.7792 30.3082 62.2173 30.3082C63.6554 30.3082 64.861 29.9895 65.9084 29.3591C66.8696 28.7815 67.6725 28.0241 68.3005 27.1013V29.7953H72.5717V0.0864258L68.3005 4.3576V12.5716V12.574ZM67.2363 23.0506C66.7665 24.0045 66.0954 24.7715 65.2469 25.3324C64.3984 25.8909 63.3941 26.1761 62.2604 26.1761C61.1267 26.1761 60.1416 25.8909 59.2212 25.33C58.2984 24.7691 57.5458 24.0045 56.985 23.0554C56.4241 22.1086 56.1389 21.0325 56.1389 19.858C56.1389 18.6835 56.4169 17.6241 56.9658 16.6702C57.5147 15.7163 58.2601 14.9421 59.1829 14.3764C60.1033 13.8084 61.1387 13.5231 62.2604 13.5231C63.3822 13.5231 64.396 13.806 65.2373 14.3668C66.081 14.9277 66.7497 15.6947 67.2267 16.6486C67.7037 17.605 67.9458 18.6859 67.9458 19.8604C67.9458 21.0349 67.7061 22.0991 67.2363 23.053V23.0506Z" fill="white"/>
<path d="M120.04 13.063C119.367 12.8616 118.643 12.6699 117.859 12.4829C117.595 12.4206 117.344 12.3559 117.099 12.2936C115.407 11.8597 113.245 11.3804 111.996 10.0405C110.868 8.82772 110.935 7.01331 111.809 5.67587C112.898 4.01246 114.952 3.57863 116.821 3.57863C120.17 3.57863 121.907 5.03352 122.777 6.61544L125.723 3.66971C124.065 1.60603 121.258 0.112793 117.003 0.112793C109.89 0.112793 106.894 4.02444 106.894 8.07032C106.894 11.4499 108.231 13.7293 113.856 15.5389C114.683 15.8049 115.604 16.0614 116.627 16.3083C116.673 16.3203 116.716 16.3299 116.761 16.3418C118.708 16.8188 121.066 17.3365 122.579 18.7579C123.657 19.7693 123.964 21.3632 123.71 22.7822C123.202 25.6392 119.956 26.5093 117.456 26.5093C113.861 26.5093 111.551 25.2725 110.438 22.6623L107.313 25.7878C109.123 28.5538 112.397 30.2915 117.332 30.2915C124.139 30.2915 128.228 26.7561 128.228 21.6437C128.228 17.7416 126.713 15.0499 120.038 13.0653L120.04 13.063Z" fill="white"/>
</svg>
