<svg width="30" height="30" viewBox="0 0 30 30" fill="none" xmlns="http://www.w3.org/2000/svg">
<g clip-path="url(#clip0_13548_19038)">
<path d="M22.0915 30H0.816715C0.365972 30 -0.000116986 29.6347 -0.000116986 29.1832V17.3762C-0.000116986 16.9248 0.36523 16.5594 0.816715 16.5594C1.2682 16.5594 1.63355 16.9248 1.63355 17.3762V28.3663H21.7529L28.6053 21.5139C28.9246 21.1953 29.4415 21.1946 29.7608 21.5139C30.0801 21.8332 30.0801 22.35 29.7608 22.6693L22.6692 29.7609C22.5162 29.9139 22.3083 30 22.0915 30ZM29.1831 13.4406C28.7316 13.4406 28.3662 13.0752 28.3662 12.6238V1.63366H8.24691L1.39444 8.48614C1.07513 8.8047 0.558299 8.80545 0.238992 8.48614C-0.080315 8.16683 -0.080315 7.65 0.238992 7.33069L7.33058 0.239109C7.48355 0.0861386 7.69147 0 7.9083 0H29.1831C29.6345 0 29.9999 0.365347 29.9999 0.816832V12.6238C29.9999 13.0752 29.6345 13.4406 29.1831 13.4406Z" fill="#00FFB9"/>
<path d="M14.3933 18.2668H12.7812C12.3297 18.2668 11.9644 17.9015 11.9644 17.45C11.9644 16.9985 12.3297 16.6332 12.7812 16.6332H14.3933C14.6101 16.6332 14.7861 16.4572 14.7861 16.2404V9.08343C14.7861 8.63195 15.1515 8.2666 15.603 8.2666C16.0545 8.2666 16.4198 8.63195 16.4198 9.08343V16.2404C16.4198 17.3579 15.5109 18.2668 14.3933 18.2668Z" fill="#00FFB9"/>
<path d="M9.09275 12.4748C8.60042 12.4748 8.20166 12.076 8.20166 11.5837V9.15769C8.20166 8.66536 8.60042 8.2666 9.09275 8.2666C9.58508 8.2666 9.98384 8.66536 9.98384 9.15769V11.5837C9.98384 12.076 9.58508 12.4748 9.09275 12.4748Z" fill="#00FFB9"/>
<path d="M20.9741 12.4748C20.4818 12.4748 20.083 12.076 20.083 11.5837V9.15769C20.083 8.66536 20.4818 8.2666 20.9741 8.2666C21.4664 8.2666 21.8652 8.66536 21.8652 9.15769V11.5837C21.8652 12.076 21.4664 12.4748 20.9741 12.4748Z" fill="#00FFB9"/>
<path d="M15.0089 22.8709C12.5287 22.8709 10.1347 21.9731 8.26934 20.3424C7.92999 20.0454 7.89509 19.5293 8.19212 19.1899C8.48914 18.8498 9.00523 18.8157 9.34459 19.112C10.9129 20.482 12.9245 21.2365 15.0097 21.2365C17.0948 21.2365 19.1065 20.482 20.6748 19.112C21.0149 18.8149 21.5302 18.8498 21.8273 19.1899C22.1243 19.53 22.0894 20.0454 21.75 20.3424C19.8839 21.9731 17.4906 22.8709 15.0097 22.8709H15.0089Z" fill="#00FFB9"/>
</g>
<defs>
<clipPath id="clip0_13548_19038">
<rect width="30" height="30" fill="white"/>
</clipPath>
</defs>
</svg>
