<svg width="81" height="80" viewBox="0 0 81 80" fill="none" xmlns="http://www.w3.org/2000/svg">
<path d="M20.2269 0L0 20.0021V80.0014H60.6734L80.9003 59.9992V0H20.2269ZM54.2105 25.6138C54.2105 24.303 55.2853 23.2401 56.6108 23.2401C57.9364 23.2401 59.0111 24.303 59.0111 25.6138V32.0827C59.0111 33.3935 57.9364 34.4563 56.6108 34.4563C55.2853 34.4563 54.2105 33.3935 54.2105 32.0827V25.6138ZM34.5211 45.545H38.8702C39.4506 45.545 39.9307 45.0774 39.9307 44.4964V25.4083C39.9307 24.2038 40.9194 23.2331 42.1303 23.2331C43.3412 23.2331 44.33 24.2108 44.33 25.4083V44.4964C44.33 47.4722 41.8796 49.9025 38.8631 49.9025H34.5139C33.2958 49.9025 32.3142 48.9248 32.3142 47.7273C32.3142 46.5299 33.303 45.5521 34.5139 45.5521L34.5211 45.545ZM22.1686 25.6138C22.1686 24.303 23.2433 23.2401 24.5689 23.2401C25.8944 23.2401 26.9691 24.303 26.9691 25.6138V32.0827C26.9691 33.3935 25.8944 34.4563 24.5689 34.4563C23.2433 34.4563 22.1686 33.3935 22.1686 32.0827V25.6138ZM58.703 55.4362C53.6732 59.7867 47.2175 62.1816 40.5254 62.1816C33.8332 62.1816 27.3847 59.7867 22.3477 55.4362C21.4306 54.6427 21.3374 53.2681 22.1399 52.3612C22.9424 51.4542 24.3324 51.3621 25.2495 52.1557C29.4769 55.8118 34.9008 57.824 40.5254 57.824C46.1499 57.824 51.5738 55.8118 55.8012 52.1557C56.7183 51.3621 58.1083 51.4542 58.9108 52.3612C59.7133 53.2681 59.6201 54.6427 58.703 55.4362Z" fill="#00FFB9"/>
</svg>
