<svg width="130" height="61" viewBox="0 0 130 61" fill="none" xmlns="http://www.w3.org/2000/svg">
<g clip-path="url(#clip0_13548_19168)">
<path d="M45.063 55.8094V41.2783H53.626V42.3988H46.1959V47.465H52.6197V48.5856H46.1959V55.8094H45.063Z" fill="#1a1a1a"/>
<path d="M63.5448 45.4288H64.6777V55.8086H63.5448L63.5147 53.6808C63.1591 54.402 62.6499 54.9801 61.9871 55.4182C61.3272 55.8563 60.5348 56.0768 59.6098 56.0768C58.8475 56.0768 58.1304 55.9337 57.4645 55.6447C56.7956 55.3586 56.2081 54.9622 55.6959 54.4616C55.1837 53.9609 54.786 53.3798 54.4997 52.7182C54.2135 52.0566 54.0688 51.3473 54.0688 50.5844C54.0688 49.8215 54.2105 49.1242 54.4937 48.4656C54.7769 47.807 55.1716 47.2288 55.6748 46.7282C56.178 46.2275 56.7625 45.8341 57.4284 45.554C58.0943 45.2739 58.8023 45.1338 59.5586 45.1338C60.4896 45.1338 61.2941 45.3573 61.978 45.8043C62.659 46.2513 63.1923 46.8325 63.578 47.5536L63.5478 45.4258L63.5448 45.4288ZM59.5978 54.9801C60.4022 54.9801 61.0922 54.7834 61.6707 54.393C62.2492 54.0026 62.6891 53.4751 62.9995 52.8106C63.3068 52.146 63.4604 51.4159 63.4604 50.6202C63.4604 49.8245 63.3038 49.0646 62.9934 48.403C62.6831 47.7414 62.2372 47.2169 61.6617 46.8265C61.0832 46.4361 60.3962 46.2394 59.6008 46.2394C58.8053 46.2394 58.0521 46.4361 57.3922 46.8295C56.7324 47.2229 56.2051 47.7533 55.8134 48.4179C55.4217 49.0824 55.2258 49.8156 55.2258 50.6172C55.2258 51.4189 55.4277 52.1698 55.8285 52.8285C56.2322 53.4871 56.7655 54.0086 57.4284 54.396C58.0943 54.7834 58.8174 54.9771 59.6008 54.9771L59.5978 54.9801Z" fill="#1a1a1a"/>
<path d="M74.6779 53.3707L75.6843 53.9101C75.2082 54.5687 74.6056 55.0932 73.8734 55.4866C73.1413 55.8799 72.3488 56.0796 71.4962 56.0796C70.532 56.0796 69.6522 55.8352 68.8568 55.3435C68.0613 54.8518 67.4286 54.1932 66.9585 53.3677C66.4855 52.5392 66.2505 51.6243 66.2505 50.623C66.2505 49.8631 66.3861 49.1508 66.6603 48.4893C66.9344 47.8277 67.3081 47.2465 67.7871 46.7459C68.2662 46.2452 68.8236 45.8518 69.4624 45.5687C70.0981 45.2856 70.7761 45.1426 71.4992 45.1426C72.3519 45.1426 73.1443 45.3393 73.8765 45.7326C74.6086 46.126 75.2112 46.6565 75.6873 47.321L74.6809 47.8515C74.2832 47.3389 73.7981 46.9455 73.2317 46.6744C72.6652 46.4002 72.0867 46.2631 71.4992 46.2631C70.7309 46.2631 70.0348 46.4628 69.4111 46.8591C68.7875 47.2585 68.2963 47.7859 67.9318 48.4475C67.5672 49.1091 67.3864 49.8333 67.3864 50.623C67.3864 51.4127 67.5732 52.1459 67.9438 52.8015C68.3144 53.4601 68.8116 53.9846 69.4353 54.375C70.059 54.7654 70.7459 54.9621 71.5022 54.9621C72.1379 54.9621 72.7375 54.8131 73.298 54.515C73.8584 54.217 74.3194 53.8356 74.6839 53.3737L74.6779 53.3707Z" fill="#1a1a1a"/>
<path d="M82.4244 56.0796C81.4602 56.0796 80.5804 55.8352 79.785 55.3435C78.9895 54.8518 78.3568 54.1932 77.8868 53.3677C77.4137 52.5392 77.1787 51.6243 77.1787 50.623C77.1787 49.8631 77.3143 49.1508 77.5885 48.4893C77.8627 47.8277 78.2363 47.2465 78.7154 46.7459C79.1944 46.2452 79.7518 45.8518 80.3906 45.5687C81.0263 45.2856 81.7043 45.1426 82.4274 45.1426C83.1897 45.1426 83.8947 45.2886 84.5425 45.5836C85.1903 45.8787 85.7478 46.2899 86.2178 46.8234C86.6878 47.3568 87.0464 47.9856 87.2995 48.7068C87.5526 49.431 87.6671 50.2207 87.646 51.079H78.3689C78.4442 51.818 78.6702 52.4826 79.0468 53.0667C79.4204 53.6508 79.9025 54.1127 80.49 54.4465C81.0776 54.7833 81.7254 54.9531 82.4304 54.9591C83.2078 54.9591 83.9068 54.7564 84.5275 54.3511C85.1512 53.9458 85.6513 53.3915 86.028 52.6853L87.1729 52.9445C86.7541 53.8654 86.1184 54.6164 85.2747 55.2035C84.428 55.7876 83.482 56.0796 82.4304 56.0796H82.4244ZM78.3297 50.1224H86.495C86.4528 49.4101 86.2449 48.7545 85.8713 48.1555C85.4977 47.5565 85.0096 47.0767 84.407 46.7191C83.8044 46.3585 83.1445 46.1797 82.4244 46.1797C81.7043 46.1797 81.0444 46.3555 80.4509 46.7101C79.8573 47.0618 79.3722 47.5386 78.9986 48.1376C78.625 48.7366 78.402 49.3982 78.3327 50.1253L78.3297 50.1224Z" fill="#1a1a1a"/>
<path d="M94.0939 56.0801C93.3165 56.0801 92.5662 55.9609 91.8371 55.7225C91.1079 55.4841 90.4752 55.1443 89.9329 54.7062C89.3905 54.2682 89.0109 53.7407 88.7939 53.1238L89.8545 52.7304C90.0233 53.2013 90.3276 53.6036 90.7735 53.9404C91.2164 54.2771 91.7316 54.5304 92.3162 54.7033C92.9007 54.8761 93.4943 54.9625 94.0939 54.9625C94.8079 54.9625 95.4738 54.8404 96.0975 54.599C96.7212 54.3576 97.2244 54.0208 97.6101 53.5857C97.9957 53.1536 98.1855 52.641 98.1855 52.045C98.1855 51.449 97.9867 50.9602 97.589 50.5758C97.1912 50.1914 96.679 49.8874 96.0523 49.6639C95.4256 49.4404 94.7748 49.2646 94.0939 49.1394C93.0996 48.9665 92.2107 48.7371 91.4273 48.448C90.6439 48.1619 90.0233 47.7536 89.5653 47.2291C89.1073 46.7046 88.8783 45.9983 88.8783 45.1103C88.8783 44.2878 89.1224 43.5755 89.6075 42.9735C90.0926 42.3715 90.7313 41.9037 91.5237 41.5729C92.3162 41.2421 93.1719 41.0752 94.0939 41.0752C94.8411 41.0752 95.5763 41.1914 96.2964 41.4239C97.0165 41.6563 97.6522 41.9931 98.2066 42.4371C98.758 42.8811 99.1588 43.4205 99.4028 44.0553L98.3211 44.4397C98.1524 43.9629 97.8481 43.5576 97.4082 43.2239C96.9683 42.8931 96.4531 42.6398 95.8715 42.4669C95.287 42.2941 94.6934 42.2076 94.0939 42.2076C93.3737 42.2017 92.7018 42.3209 92.0842 42.5653C91.4635 42.8096 90.9633 43.1523 90.5837 43.5874C90.201 44.0225 90.0112 44.5321 90.0112 45.1133C90.0112 45.7838 90.189 46.3023 90.5475 46.6689C90.9031 47.0354 91.3912 47.3096 92.0058 47.4944C92.6205 47.6791 93.3165 47.843 94.0939 47.9861C95.0158 48.144 95.8746 48.3884 96.67 48.7192C97.4624 49.047 98.1042 49.4851 98.5893 50.0275C99.0744 50.5698 99.3184 51.2434 99.3184 52.045C99.3184 52.8467 99.0744 53.5738 98.5893 54.1788C98.1012 54.7837 97.4654 55.2546 96.673 55.5854C95.8806 55.9162 95.0219 56.0831 94.0908 56.0831L94.0939 56.0801Z" fill="#1a1a1a"/>
<path d="M102.539 43.4681C102.344 43.4681 102.178 43.4055 102.042 43.2774C101.907 43.1492 101.837 42.9883 101.837 42.7946C101.837 42.6009 101.907 42.44 102.042 42.3118C102.178 42.1837 102.347 42.1211 102.539 42.1211C102.732 42.1211 102.892 42.1837 103.028 42.3118C103.163 42.44 103.232 42.6009 103.232 42.7946C103.232 42.9883 103.166 43.1492 103.034 43.2774C102.901 43.4055 102.735 43.4681 102.539 43.4681ZM101.964 45.429H103.097V55.8088H101.964V45.429Z" fill="#1a1a1a"/>
<path d="M114.8 45.4295H115.933V56.2444C115.933 56.8881 115.791 57.496 115.508 58.0652C115.224 58.6374 114.842 59.1411 114.36 59.5791C113.878 60.0172 113.329 60.3659 112.718 60.6162C112.106 60.8695 111.473 60.9947 110.822 60.9947C110.096 60.9947 109.391 60.8278 108.713 60.4911C108.035 60.1543 107.448 59.7073 106.957 59.147C106.466 58.5868 106.122 57.9729 105.932 57.3113L106.981 56.8345C107.107 57.3947 107.367 57.9043 107.758 58.3662C108.15 58.8252 108.617 59.1917 109.159 59.4599C109.702 59.7281 110.256 59.8652 110.822 59.8652C111.326 59.8652 111.817 59.7669 112.293 59.5732C112.769 59.3795 113.197 59.1142 113.573 58.7805C113.95 58.4437 114.251 58.0593 114.471 57.6242C114.691 57.1891 114.803 56.7272 114.803 56.2444V53.7023C114.432 54.4086 113.917 54.9808 113.26 55.4189C112.603 55.857 111.835 56.0775 110.961 56.0775C110.235 56.0775 109.548 55.9345 108.903 55.6513C108.258 55.3682 107.695 54.9749 107.213 54.4742C106.731 53.9735 106.351 53.3924 106.074 52.7368C105.797 52.0782 105.661 51.3749 105.661 50.6179C105.661 49.861 105.8 49.1577 106.074 48.4961C106.351 47.8345 106.731 47.2534 107.213 46.7527C107.695 46.2521 108.258 45.8587 108.903 45.5756C109.548 45.2925 110.232 45.1494 110.961 45.1494C111.835 45.1494 112.603 45.367 113.26 45.7991C113.917 46.2312 114.432 46.8064 114.803 47.5275V45.4295H114.8ZM110.967 54.9808C111.75 54.9808 112.425 54.7811 112.986 54.3788C113.549 53.9765 113.983 53.4461 114.287 52.7815C114.592 52.1169 114.742 51.3987 114.742 50.6239C114.742 49.8491 114.589 49.101 114.281 48.4395C113.974 47.7779 113.537 47.2474 112.971 46.8451C112.404 46.4428 111.735 46.2431 110.967 46.2431C110.199 46.2431 109.497 46.4398 108.867 46.8332C108.237 47.2266 107.737 47.757 107.367 48.4216C106.996 49.0861 106.809 49.8193 106.809 50.6209C106.809 51.4226 106.999 52.1646 107.376 52.8202C107.752 53.4788 108.255 54.0033 108.888 54.3937C109.518 54.7841 110.211 54.9808 110.967 54.9808Z" fill="#1a1a1a"/>
<path d="M127.771 49.4251V55.8085H126.638V49.6009C126.638 48.984 126.487 48.4238 126.186 47.9201C125.884 47.4135 125.478 47.0142 124.968 46.7162C124.459 46.4182 123.89 46.2692 123.269 46.2692C122.648 46.2692 122.091 46.4182 121.579 46.7162C121.07 47.0142 120.66 47.4165 120.356 47.9201C120.051 48.4268 119.898 48.987 119.898 49.6009V55.8085H118.765V45.4288H119.898V47.0172C120.274 46.442 120.774 45.986 121.398 45.6463C122.022 45.3066 122.7 45.1367 123.435 45.1367C124.239 45.1367 124.968 45.3274 125.622 45.7119C126.276 46.0963 126.797 46.6119 127.186 47.2645C127.575 47.9172 127.768 48.6354 127.768 49.4221L127.771 49.4251Z" fill="#1a1a1a"/>
<path d="M49.546 9.41113H45.1982V29.8637H49.546V9.41113Z" fill="#1a1a1a"/>
<path d="M101.584 4.62767C100.259 3.24788 98.7009 2.15418 96.9534 1.37338C95.2058 0.595574 93.3076 0.199219 91.31 0.199219C89.3123 0.199219 87.4322 0.595574 85.6847 1.37338C83.9401 2.15119 82.3824 3.24788 81.0536 4.62767C79.7279 6.00747 78.6733 7.62567 77.9201 9.43758C77.1668 11.2495 76.7842 13.2193 76.7842 15.2875C76.7842 17.3557 77.1668 19.3226 77.9201 21.1375C78.6733 22.9494 79.7309 24.5676 81.0536 25.9474C82.3794 27.3272 83.9401 28.4209 85.6847 29.2017C87.4322 29.9795 89.3214 30.3759 91.31 30.3759C93.2986 30.3759 95.2058 29.9795 96.9534 29.2017C98.6979 28.4239 100.256 27.3272 101.584 25.9474C102.91 24.5706 103.965 22.9494 104.709 21.1375C105.453 19.3256 105.836 17.3557 105.836 15.2875C105.836 13.2193 105.456 11.2525 104.709 9.43758C103.959 7.62567 102.91 6.00747 101.584 4.62767ZM100.557 19.3882C100.039 20.6637 99.3096 21.8021 98.3906 22.7825C97.4716 23.757 96.399 24.5348 95.1968 25.0951C93.9946 25.6524 92.6899 25.9385 91.307 25.9385C89.924 25.9385 88.6193 25.6584 87.4202 25.1041C86.218 24.5527 85.1423 23.7779 84.2264 22.8034C83.3074 21.8289 82.5782 20.6875 82.063 19.409C81.5448 18.1336 81.2826 16.7478 81.2826 15.2875C81.2826 13.8273 81.5448 12.4624 82.063 11.1869C82.5812 9.91142 83.3104 8.76705 84.2264 7.79255C85.1423 6.81806 86.218 6.04025 87.4232 5.47998C88.6254 4.9227 89.933 4.63661 91.31 4.63661C92.6869 4.63661 93.9976 4.91674 95.1968 5.47104C96.399 6.02237 97.4746 6.7972 98.3936 7.77169C99.3126 8.74619 100.042 9.89056 100.557 11.175C101.075 12.4594 101.337 13.8392 101.337 15.2875C101.337 16.7359 101.075 18.1127 100.557 19.3882Z" fill="#1a1a1a"/>
<path d="M49.546 1.58496H45.1982V5.87633H49.546V1.58496Z" fill="#1a1a1a"/>
<path d="M69.2454 12.6383C68.6097 11.7263 67.7932 10.9724 66.82 10.3942C66.0185 9.91741 65.1025 9.6194 64.0901 9.50019C63.7617 9.46145 63.4243 9.44357 63.0778 9.44357C61.6195 9.44357 60.2365 9.71774 58.965 10.2601C57.6965 10.7995 56.5606 11.5595 55.5934 12.519C54.6232 13.4786 53.8549 14.5992 53.3065 15.8627C52.7582 17.1233 52.481 18.4942 52.481 19.9306C52.481 20.2674 52.496 20.5952 52.5262 20.92C52.6256 21.9988 52.8877 23.024 53.3065 23.9865C53.8549 25.2412 54.6232 26.3617 55.5934 27.3153C56.5636 28.2749 57.6965 29.0319 58.965 29.5743C60.2365 30.1166 61.6195 30.3908 63.0778 30.3908C64.5361 30.3908 65.7594 30.0719 66.82 29.4401C67.7932 28.862 68.6067 28.1051 69.2454 27.1812V29.8782H73.5752V0.139648L69.2454 4.41611V12.6383ZM68.1668 23.1253C67.6907 24.0789 67.0098 24.8478 66.148 25.4081C65.2863 25.9653 64.2679 26.2514 63.12 26.2514C61.972 26.2514 60.9717 25.9653 60.0376 25.4051C59.1006 24.8418 58.3383 24.0789 57.7718 23.1283C57.2024 22.1806 56.9131 21.1048 56.9131 19.9276C56.9131 18.7505 57.1933 17.6925 57.7507 16.7359C58.3051 15.7823 59.0644 15.0045 59.9985 14.4412C60.9325 13.872 61.981 13.5889 63.1169 13.5889C64.2528 13.5889 65.2833 13.872 66.136 14.4323C66.9917 14.9955 67.6696 15.7614 68.1547 16.7151C68.6368 17.6747 68.8839 18.7535 68.8839 19.9306C68.8839 21.1077 68.6398 22.1716 68.1638 23.1253H68.1668Z" fill="#1a1a1a"/>
<path d="M121.702 13.1305C121.018 12.9278 120.286 12.7371 119.491 12.5494C119.223 12.4868 118.969 12.4242 118.719 12.3586C117.002 11.9236 114.811 11.4438 113.546 10.1027C112.401 8.88681 112.47 7.07192 113.356 5.73385C114.459 4.06796 116.541 3.63585 118.436 3.63585C121.832 3.63585 123.591 5.09312 124.474 6.67557L127.46 3.72823C125.779 1.66301 122.932 0.166992 118.62 0.166992C111.407 0.166992 108.37 4.08287 108.37 8.13284C108.37 11.5153 109.725 13.798 115.429 15.607C116.267 15.8722 117.201 16.1285 118.237 16.3758C118.282 16.3878 118.328 16.3967 118.373 16.4116C120.346 16.8884 122.739 17.407 124.272 18.8315C125.366 19.8447 125.676 21.4391 125.42 22.8606C124.905 25.7215 121.615 26.5917 119.081 26.5917C115.435 26.5917 113.094 25.352 111.964 22.7414L108.794 25.8705C110.629 28.639 113.95 30.3794 118.954 30.3794C125.857 30.3794 130 26.839 130 21.7252C130 17.8182 128.463 15.1242 121.696 13.1394H121.702V13.1305Z" fill="#1a1a1a"/>
<path d="M8.50577 0L0 8.41287V33.6485H25.5143L34.0201 25.2356V0H8.50577ZM22.7966 10.7731C22.7966 10.2218 23.2485 9.77478 23.8059 9.77478C24.3633 9.77478 24.8153 10.2218 24.8153 10.7731V13.494C24.8153 14.0453 24.3633 14.4923 23.8059 14.4923C23.2485 14.4923 22.7966 14.0453 22.7966 13.494V10.7731ZM14.5168 19.1562H16.3457C16.5897 19.1562 16.7916 18.9595 16.7916 18.7151V10.6867C16.7916 10.1801 17.2074 9.7718 17.7166 9.7718C18.2258 9.7718 18.6416 10.1831 18.6416 10.6867V18.7151C18.6416 19.9668 17.6111 20.989 16.3427 20.989H14.5137C14.0015 20.989 13.5887 20.5777 13.5887 20.0741C13.5887 19.5704 14.0045 19.1592 14.5137 19.1592L14.5168 19.1562ZM9.3223 10.7731C9.3223 10.2218 9.77425 9.77478 10.3317 9.77478C10.8891 9.77478 11.341 10.2218 11.341 10.7731V13.494C11.341 14.0453 10.8891 14.4923 10.3317 14.4923C9.77425 14.4923 9.3223 14.0453 9.3223 13.494V10.7731ZM24.6857 23.3164C22.5706 25.1462 19.8558 26.1535 17.0417 26.1535C14.2275 26.1535 11.5158 25.1462 9.39763 23.3164C9.01196 22.9827 8.97279 22.4045 9.31025 22.0231C9.64771 21.6416 10.2322 21.6029 10.6179 21.9366C12.3956 23.4744 14.6764 24.3207 17.0417 24.3207C19.4069 24.3207 21.6878 23.4744 23.4654 21.9366C23.8511 21.6029 24.4356 21.6416 24.7731 22.0231C25.1106 22.4045 25.0714 22.9827 24.6857 23.3164Z" fill="#00FFB9"/>
</g>
<defs>
<clipPath id="clip0_13548_19168">
<rect width="130" height="61" fill="white"/>
</clipPath>
</defs>
</svg>
