<svg width="68" height="22" viewBox="0 0 68 22" fill="none" xmlns="http://www.w3.org/2000/svg">
<path d="M16.6858 5.40723H5.89844V16.1721H16.6858V5.40723Z" fill="#00FFB9"/>
<path d="M5.90337 0L0.512695 5.39074V21.563H16.6847L22.0754 16.1722V0H5.90337ZM19.3801 5.40738V13.4768C19.3801 14.9656 18.1735 16.1722 16.6847 16.1722C16.6847 17.661 15.4781 18.8676 13.9894 18.8676H3.20204V8.31105C3.20204 6.82228 4.40862 5.40804 5.89738 5.40804C5.89738 3.91927 7.10396 2.71267 8.59272 2.71267H19.3801V5.40804V5.40738Z" fill="#00FFB9"/>
<path d="M29.5536 8.05273H27.4766V17.9504H29.5536V8.05273Z" fill="#F6F6F6"/>
<path d="M54.4215 5.73802C53.7872 5.0705 53.0425 4.54075 52.2086 4.16406C51.3734 3.78671 50.4663 3.5957 49.5119 3.5957C48.5576 3.5957 47.6598 3.78671 46.8253 4.16406C45.9914 4.54075 45.2467 5.0705 44.6124 5.73802C43.9789 6.40488 43.4744 7.1882 43.1143 8.06602C42.7543 8.94385 42.5713 9.89621 42.5713 10.8972C42.5713 11.8981 42.7543 12.8505 43.1143 13.7283C43.4751 14.6061 43.9789 15.3894 44.6124 16.0563C45.2467 16.7238 45.9914 17.2536 46.8253 17.6303C47.6598 18.0076 48.5636 18.1986 49.5119 18.1986C50.4603 18.1986 51.3741 18.0076 52.2086 17.6303C53.0425 17.2536 53.7872 16.7238 54.4215 16.0563C55.055 15.3894 55.5575 14.6061 55.9149 13.7283C56.2716 12.8505 56.4526 11.8981 56.4526 10.8978C56.4526 9.89754 56.2716 8.94518 55.9149 8.06669C55.5575 7.18886 55.055 6.40621 54.4215 5.73869V5.73802ZM53.931 12.8817C53.6834 13.4994 53.3353 14.0517 52.8961 14.5236C52.4575 14.9954 51.9437 15.3721 51.3694 15.6423C50.7964 15.9125 50.1708 16.0496 49.5113 16.0496C48.8518 16.0496 48.2268 15.9145 47.6532 15.647C47.0788 15.3795 46.565 15.0048 46.1271 14.5336C45.6886 14.0624 45.3405 13.51 45.0923 12.8917C44.8447 12.2748 44.7196 11.6033 44.7196 10.8965C44.7196 10.1897 44.8454 9.52884 45.0923 8.91124C45.3398 8.29363 45.6879 7.74125 46.1271 7.26939C46.5657 6.79754 47.0795 6.42151 47.6538 6.15065C48.2275 5.88044 48.8531 5.74335 49.5119 5.74335C50.1708 5.74335 50.7964 5.87845 51.3701 6.14599C51.9437 6.41353 52.4575 6.78822 52.8968 7.25941C53.3353 7.73126 53.6834 8.28498 53.9316 8.90591C54.1792 9.52685 54.305 10.1964 54.305 10.8958C54.305 11.5953 54.1792 12.2635 53.9323 12.8804L53.931 12.8817Z" fill="#F6F6F6"/>
<path d="M29.5536 4.2666H27.4766V6.3437H29.5536V4.2666Z" fill="#F6F6F6"/>
<path d="M38.9672 9.61486C38.663 9.17428 38.2737 8.80958 37.8085 8.52939C37.4252 8.29912 36.9879 8.1547 36.5048 8.09813C36.3484 8.0795 36.1867 8.07018 36.0209 8.07018C35.3248 8.07018 34.664 8.20328 34.057 8.46483C33.4501 8.72638 32.9077 9.09442 32.4445 9.55696C31.9813 10.0195 31.6139 10.5639 31.3517 11.1742C31.0895 11.7838 30.957 12.4467 30.957 13.1428C30.957 13.3052 30.965 13.4649 30.979 13.6226C31.0262 14.1437 31.1507 14.6416 31.3517 15.1068C31.6132 15.7137 31.9813 16.2561 32.4438 16.7187C32.907 17.1819 33.4494 17.5492 34.0563 17.8108C34.6633 18.073 35.3241 18.2054 36.0203 18.2054C36.7164 18.2054 37.3007 18.051 37.8078 17.7462C38.273 17.4667 38.6624 17.0993 38.9665 16.6528V17.9579H41.0363V3.56592L38.9665 5.63569V9.61486H38.9672ZM38.4514 14.6901C38.2231 15.1527 37.899 15.524 37.4871 15.7956C37.0758 16.0664 36.5886 16.2042 36.0396 16.2042C35.4905 16.2042 35.0133 16.0664 34.5675 15.7949C34.1202 15.5234 33.7562 15.152 33.484 14.6921C33.2125 14.2329 33.0747 13.7118 33.0747 13.1428C33.0747 12.5738 33.2091 12.0607 33.4747 11.5981C33.7402 11.1356 34.1016 10.7616 34.5488 10.486C34.9947 10.2112 35.4965 10.0721 36.0402 10.0721C36.584 10.0721 37.0744 10.2092 37.4824 10.48C37.891 10.7516 38.2158 11.1236 38.4467 11.5855C38.6783 12.0487 38.7955 12.5724 38.7955 13.1421C38.7955 13.7118 38.6797 14.2263 38.4514 14.6895V14.6901Z" fill="#F6F6F6"/>
<path d="M64.0337 9.85219C63.7076 9.75502 63.3562 9.66185 62.9775 9.57134C62.8497 9.54072 62.7279 9.51011 62.6095 9.4795C61.7895 9.26853 60.742 9.03692 60.1377 8.38804C59.5907 7.80038 59.6233 6.92122 60.0472 6.27367C60.5743 5.46839 61.5699 5.25742 62.4757 5.25742C64.0976 5.25742 64.9401 5.96221 65.3607 6.72889L66.7882 5.30134C65.985 4.30173 64.6246 3.57764 62.5642 3.57764C59.1175 3.57764 57.666 5.47238 57.666 7.43301C57.666 9.06953 58.3136 10.1743 61.0388 11.0508C61.4402 11.1799 61.8854 11.3037 62.3812 11.4242C62.4038 11.4295 62.4244 11.4348 62.4464 11.4401C63.3894 11.6711 64.5315 11.9226 65.2649 12.6108C65.7873 13.1006 65.9357 13.8726 65.8126 14.5608C65.5657 15.9457 63.9944 16.3663 62.7832 16.3663C61.0422 16.3663 59.9214 15.7674 59.383 14.5029L57.8683 16.0176C58.7448 17.358 60.3314 18.1992 62.7219 18.1992C66.0202 18.1992 68.0008 16.4861 68.0008 14.009C68.0008 12.119 67.2667 10.8152 64.0323 9.85285L64.0337 9.85219Z" fill="#F6F6F6"/>
</svg>
