<svg width="80" height="80" viewBox="0 0 80 80" fill="none" xmlns="http://www.w3.org/2000/svg">
<g clip-path="url(#clip0_14500_27003)">
<path d="M6.19989 23.7654L23.1381 6.82901H65.3617C65.409 6.82901 65.4526 6.81083 65.4853 6.7781L68.0435 4.21992C68.1544 4.10901 68.0762 3.91992 67.9199 3.91992H22.5344C22.149 3.91992 21.7781 4.07265 21.5053 4.34538L4.18534 21.6672C3.6217 22.2308 3.56534 23.1563 4.1108 23.7345C4.67625 24.3345 5.61989 24.3454 6.19989 23.7672V23.7654Z" fill="#EA8E8F"/>
<path d="M5.07449 44.4681C4.30176 44.519 3.71631 45.1954 3.71631 45.9699V68.1226C3.71631 68.279 3.9054 68.3572 4.01631 68.2463L6.57449 65.6881C6.60722 65.6554 6.6254 65.6099 6.6254 65.5644V45.9208C6.6254 45.0863 5.92176 44.4154 5.07449 44.4699V44.4681Z" fill="#EA8E8F"/>
<path d="M74.6255 35.7383C75.4291 35.7383 76.08 35.0874 76.08 34.2838V5.9765L79.5727 2.48377C80.14 1.9165 80.14 0.99468 79.5727 0.427408C79.0054 -0.139865 78.0836 -0.139865 77.5164 0.427408L74.0236 3.92013H74L71.0909 6.82923H71.1145L42.8291 35.1147V35.091L39.92 38.0001V38.0238L26.6055 51.3383C26.6055 51.3383 26.5964 51.331 26.5927 51.3274L24.5218 53.3983C24.5218 53.3983 24.5309 53.4056 24.5345 53.4092L6.62545 71.3183V71.2947L3.71636 74.2038V74.2274L0.425454 77.5183C-0.141818 78.0856 -0.141818 79.0074 0.425454 79.5747C0.709091 79.8583 1.08182 80.0001 1.45455 80.0001C1.82727 80.0001 2.19818 79.8583 2.48364 79.5747L5.77455 76.2838H57.2636C57.6491 76.2838 58.02 76.131 58.2927 75.8583L75.6564 58.4947C76.2236 57.9274 76.2236 57.0056 75.6564 56.4383C75.0891 55.871 74.1673 55.871 73.6 56.4383L56.6618 73.3765H8.68364L26.94 55.1201C30.8109 57.5329 35.3018 58.831 39.92 58.831C45.8618 58.831 51.5945 56.6801 56.0636 52.7747C56.6691 52.2456 56.7309 51.3274 56.2018 50.722C55.6727 50.1165 54.7545 50.0547 54.1491 50.5838C50.2109 54.0256 45.1564 55.9201 39.92 55.9201C36.0782 55.9201 32.3364 54.9001 29.06 52.9983L34.5018 47.5565H38.4145C40.8491 47.5565 42.8309 45.5765 42.8309 43.1401V39.2274L52.8909 29.1674V31.7365C52.8909 32.6401 53.6236 33.3729 54.5273 33.3729C55.4309 33.3729 56.1636 32.6401 56.1636 31.7365V25.8947L73.1727 8.88559V34.2838C73.1727 35.0874 73.8236 35.7383 74.6273 35.7383H74.6255ZM39.92 43.1401C39.92 43.971 39.2436 44.6474 38.4127 44.6474H37.4091L39.9182 42.1383V43.142L39.92 43.1401Z" fill="#EA8E8F"/>
<path d="M41.2764 24.1654C40.5037 24.2163 39.9182 24.8926 39.9182 25.6672V31.9199C39.9182 32.0763 40.1073 32.1544 40.2182 32.0435L42.8273 29.4344V25.6181C42.8273 24.7835 42.1237 24.1126 41.2764 24.1672V24.1654Z" fill="#EA8E8F"/>
<path d="M27.0708 31.7385V25.7985C27.0708 24.8948 26.3381 24.1621 25.4345 24.1621C24.5308 24.1621 23.7981 24.8948 23.7981 25.7985V31.7385C23.7981 32.6421 24.5308 33.3748 25.4345 33.3748C26.3381 33.3748 27.0708 32.6421 27.0708 31.7385Z" fill="#EA8E8F"/>
</g>
<defs>
<clipPath id="clip0_14500_27003">
<rect width="80" height="80" fill="white"/>
</clipPath>
</defs>
</svg>
