<svg width="122" height="83" viewBox="0 0 122 83" fill="none" xmlns="http://www.w3.org/2000/svg">
<path d="M31.2641 73.9733C26.8624 73.9733 23.2939 70.4193 23.2939 66.0354" stroke="#00FFB9" stroke-width="2" stroke-miterlimit="10"/>
<path d="M23.2939 17.5398V17.424C23.2939 13.0401 26.8624 9.48608 31.2641 9.48608H112.445C116.846 9.48608 120.415 13.0401 120.415 17.424V66.0355C120.415 70.4194 116.846 73.9734 112.445 73.9734H71.8544" stroke="#00FFB9" stroke-width="2" stroke-miterlimit="10"/>
<path d="M111.996 41.2988H83.9385" stroke="#00FFB9" stroke-width="2" stroke-miterlimit="10"/>
<path d="M112.18 9.23526C112.18 4.8514 108.612 1.29736 104.21 1.29736H31.229C26.8273 1.29736 23.2588 4.8514 23.2588 9.23526V17.2053" stroke="#00FFB9" stroke-width="2" stroke-miterlimit="10"/>
<path d="M61.9013 67.055L64.5171 80.3031C64.7076 81.2615 63.8873 82.1235 62.9153 81.9852L48.9126 79.9943L1.71491 32.9845C1.15623 32.4281 1.15623 31.5307 1.71491 30.9743L12.6852 20.0484C13.2439 19.492 14.1449 19.492 14.7036 20.0484L61.9045 67.0582L61.9013 67.055Z" stroke="#00FFB9" stroke-width="2" stroke-miterlimit="10"/>
<path d="M9.12012 40.3596L22.1088 27.4236" stroke="#00FFB9" stroke-width="2" stroke-miterlimit="10"/>
</svg>
