<svg width="21" height="15" viewBox="0 0 21 15" fill="none" xmlns="http://www.w3.org/2000/svg">
<path d="M19.8955 5.66187C18.9179 2.00599 15.5112 -0.0616684 12.2831 1.03901L6.8441 2.90479L5.13727 0.742188C1.91241 1.85516 0.0911467 5.71618 1.06875 9.37206C2.04635 13.0279 5.45296 15.0956 8.68114 13.9949L14.1235 12.128L15.8302 14.2906C19.053 13.1761 20.8727 9.31651 19.8955 5.66187ZM15.1523 11.769L14.1197 12.1233L12.4129 9.96066L8.00655 11.4722C6.00847 12.1509 3.90105 10.8707 3.296 8.60801C2.69095 6.34537 3.81707 3.95591 5.81187 3.2649L6.84783 2.90952L8.55467 5.07212L12.9576 3.56172C14.9558 2.88302 17.0632 4.16325 17.6682 6.4259C18.2733 8.68854 17.1471 11.078 15.1523 11.769Z" fill="#090A0C"/>
</svg>
