<svg width="51" height="17" viewBox="0 0 51 17" fill="none" xmlns="http://www.w3.org/2000/svg">
<g clip-path="url(#clip0_2141_562)">
<path d="M12.4173 4.02661H4.38452V12.0408H12.4173V4.02661Z" fill="#646F85"/>
<path d="M4.38801 0L0.375 4.01301V16.0537H12.4157L16.4287 12.0407V0H4.38801ZM14.4231 4.02658V10.0351C14.4231 11.1431 13.5238 12.0424 12.4157 12.0424C12.4157 13.1505 11.5164 14.0498 10.4084 14.0498H2.37726V6.19004C2.37726 5.08201 3.27658 4.02828 4.38461 4.02828C4.38461 2.92025 5.28394 2.02093 6.39197 2.02093H14.4248V4.02828L14.4231 4.02658Z" fill="#646F85"/>
<path d="M21.9977 5.99658H20.4519V13.3659H21.9977V5.99658Z" fill="#646F85"/>
<path d="M40.5118 4.27262C40.0401 3.77545 39.4852 3.38179 38.8641 3.10011C38.2431 2.81844 37.5661 2.6759 36.8568 2.6759C36.1475 2.6759 35.4773 2.81844 34.8562 3.10011C34.2352 3.38009 33.6803 3.77545 33.2086 4.27262C32.7369 4.76979 32.3619 5.35181 32.0938 6.00509C31.8257 6.65837 31.6899 7.36765 31.6899 8.11255C31.6899 8.85746 31.8257 9.56674 32.0938 10.22C32.3619 10.8733 32.7369 11.457 33.2086 11.9525C33.6803 12.4497 34.2352 12.8433 34.8562 13.125C35.4773 13.4067 36.1509 13.5492 36.8568 13.5492C37.5627 13.5492 38.2431 13.4067 38.8641 13.125C39.4852 12.845 40.0401 12.4497 40.5118 11.9525C40.9835 11.4553 41.3585 10.8733 41.6232 10.2183C41.8896 9.56504 42.0237 8.85577 42.0237 8.11086C42.0237 7.36595 41.8896 6.65667 41.6232 6.00339C41.3568 5.35011 40.9835 4.7664 40.5118 4.26923V4.27262ZM40.147 9.5905C39.962 10.0503 39.7041 10.461 39.3766 10.8122C39.0491 11.1635 38.6673 11.4434 38.2397 11.6454C37.8121 11.8473 37.3472 11.9491 36.8568 11.9491C36.3664 11.9491 35.8998 11.849 35.4739 11.6488C35.0463 11.4502 34.6645 11.1702 34.337 10.819C34.0095 10.4678 33.7516 10.0571 33.5666 9.59728C33.3817 9.13744 33.2884 8.63857 33.2884 8.11255C33.2884 7.58654 33.3817 7.09445 33.5666 6.63461C33.7516 6.17477 34.0095 5.76414 34.337 5.41289C34.6628 5.06165 35.0463 4.78167 35.4739 4.57975C35.9015 4.37783 36.3664 4.27602 36.8568 4.27602C37.3472 4.27602 37.8138 4.37613 38.2397 4.57636C38.6673 4.77488 39.0491 5.05486 39.3766 5.40611C39.7041 5.75735 39.962 6.16968 40.147 6.63292C40.3319 7.09446 40.4252 7.59332 40.4252 8.11425C40.4252 8.63518 40.3319 9.13235 40.147 9.59219V9.5905Z" fill="#646F85"/>
<path d="M21.9977 3.17645H20.4519V4.72227H21.9977V3.17645Z" fill="#646F85"/>
<path d="M29.0074 7.15891C28.7817 6.83142 28.4915 6.55993 28.1454 6.35122C27.8603 6.17984 27.5345 6.07294 27.1748 6.03052C27.0577 6.01694 26.9389 6.01015 26.8151 6.01015C26.2975 6.01015 25.8054 6.10857 25.3524 6.30371C24.901 6.49884 24.4972 6.77203 24.1527 7.11649C23.8083 7.46095 23.5351 7.86649 23.3399 8.32124C23.1448 8.77599 23.0464 9.26807 23.0464 9.7873C23.0464 9.90778 23.0515 10.0266 23.0634 10.1453C23.099 10.5339 23.1906 10.9038 23.3399 11.25C23.5351 11.7013 23.8083 12.1052 24.1527 12.4496C24.4972 12.7941 24.901 13.069 25.3524 13.2624C25.8037 13.4576 26.2958 13.556 26.8151 13.556C27.3343 13.556 27.7687 13.4406 28.1454 13.2132C28.4915 13.0045 28.7817 12.7313 29.0074 12.3987V13.371H30.5481V2.65552L29.0074 4.19624V7.15891ZM28.6222 10.9378C28.4525 11.2822 28.2115 11.5588 27.9044 11.7607C27.599 11.9626 27.2359 12.0645 26.8269 12.0645C26.418 12.0645 26.0634 11.9626 25.7308 11.759C25.3982 11.5571 25.1267 11.2805 24.9248 10.9378C24.7229 10.5967 24.6194 10.2081 24.6194 9.78391C24.6194 9.3597 24.7195 8.97792 24.918 8.63346C25.1165 8.289 25.3846 8.01072 25.7172 7.8054C26.0498 7.60009 26.4231 7.49658 26.8269 7.49658C27.2308 7.49658 27.5973 7.59839 27.901 7.80031C28.2048 8.00224 28.4474 8.27882 28.6188 8.62328C28.7919 8.96773 28.8784 9.35801 28.8784 9.78221C28.8784 10.2064 28.7919 10.5899 28.6222 10.9344V10.9378Z" fill="#646F85"/>
<path d="M47.6709 7.33539C47.4282 7.26243 47.1669 7.19286 46.8835 7.12668C46.7885 7.10462 46.6986 7.08087 46.6104 7.05881C45.9995 6.9027 45.2206 6.72962 44.7693 6.24603C44.362 5.80824 44.3858 5.15327 44.7014 4.67137C45.0934 4.07238 45.8349 3.91458 46.5102 3.91458C47.7184 3.91458 48.3445 4.4389 48.6584 5.01073L49.7206 3.94852C49.1217 3.20361 48.1103 2.66571 46.5747 2.66571C44.0074 2.66571 42.9282 4.07578 42.9282 5.53675C42.9282 6.75508 43.4101 7.57804 45.4395 8.22962C45.7382 8.32634 46.0708 8.41797 46.439 8.5079C46.4559 8.5113 46.4712 8.51639 46.4882 8.51978C47.1907 8.69116 48.0408 8.87951 48.5872 9.39195C48.9757 9.75677 49.086 10.332 48.9944 10.8444C48.8111 11.8761 47.6403 12.1883 46.7393 12.1883C45.4429 12.1883 44.6081 11.7421 44.2076 10.8003L43.0792 11.9287C43.7325 12.9265 44.9135 13.5526 46.6935 13.5526C49.1488 13.5526 50.6234 12.2766 50.6234 10.4338C50.6234 9.02714 50.077 8.05485 47.6692 7.33879L47.6709 7.33539Z" fill="#646F85"/>
</g>
<defs>
<clipPath id="clip0_2141_562">
<rect width="50.25" height="16.0554" fill="white" transform="translate(0.375)"/>
</clipPath>
</defs>
</svg>
