<svg width="12" height="17" viewBox="0 0 12 17" fill="none" xmlns="http://www.w3.org/2000/svg">
<path d="M8.14203 4.54504C9.43889 4.54504 10.4968 4.97491 11.1513 5.78726H11.1519C11.8725 6.66436 12.1438 7.94063 11.9278 9.46521L10.9454 16.6903L10.6176 16.9933H7.78176L7.51299 16.6662L8.46927 9.67147C8.56775 8.95924 8.47943 8.44326 8.2043 8.0995C8.05627 7.9437 7.8774 7.82405 7.68039 7.74907C7.48338 7.67408 7.27307 7.64559 7.06439 7.66562C5.47271 7.66562 4.52914 8.67355 4.25782 10.6661L3.44515 16.7003L3.11791 17H0.268775L0 16.6729L2.24043 0.303047L2.56766 0H5.41044L5.67223 0.343765L4.93199 5.7392H4.97138C5.85645 4.95223 6.9826 4.52809 8.14203 4.54504Z" fill="black"/>
</svg>
