<svg width="193" height="88" viewBox="0 0 193 88" fill="none" xmlns="http://www.w3.org/2000/svg">
<g filter="url(#filter0_d_2265_2231)">
<circle cx="44.5" cy="42" r="31.5" fill="#00382D" stroke="url(#paint0_radial_2265_2231)"/>
<path d="M57.3483 32.5942H30.3303C28.8657 32.5942 27.6785 33.7815 27.6785 35.246V51.4902C27.6785 52.9547 28.8657 54.142 30.3303 54.142H57.3483C58.8129 54.142 60.0001 52.9547 60.0001 51.4902V35.246C60.0001 33.7815 58.8129 32.5942 57.3483 32.5942Z" stroke="#00FFB9" stroke-width="1.5" stroke-miterlimit="10" stroke-linecap="round" stroke-linejoin="round"/>
<path d="M57.1983 43.2251H47.861" stroke="#00FFB9" stroke-width="1.5" stroke-miterlimit="10" stroke-linecap="round" stroke-linejoin="round"/>
<path d="M57.2593 32.5102C57.2593 31.045 56.0713 29.8584 54.6074 29.8584H30.3188C28.855 29.8584 27.667 31.0464 27.667 32.5102V35.1735" stroke="#00FFB9" stroke-width="1.5" stroke-miterlimit="10" stroke-linecap="round" stroke-linejoin="round"/>
</g>
<path d="M116.5 42H76.5" stroke="#737373"/>
<g filter="url(#filter1_d_2265_2231)">
<circle cx="148.5" cy="42" r="31.5" fill="black" stroke="url(#paint1_radial_2265_2231)"/>
<g clip-path="url(#clip0_2265_2231)">
<path d="M159.504 25H142.996C139.961 25 137.5 27.4651 137.5 30.5047H159.504V52.4917C162.539 52.4917 165 50.0266 165 46.9869V25H159.504Z" fill="#923CF7"/>
<path d="M137.496 30.5049C134.461 30.5049 132 33.3933 132 36.4366V58.0002H154.004C157.039 58.0002 159.5 55.5351 159.5 52.4954H137.496V30.5049Z" fill="#923CF7"/>
</g>
</g>
<defs>
<filter id="filter0_d_2265_2231" x="0.5" y="0" width="88" height="88" filterUnits="userSpaceOnUse" color-interpolation-filters="sRGB">
<feFlood flood-opacity="0" result="BackgroundImageFix"/>
<feColorMatrix in="SourceAlpha" type="matrix" values="0 0 0 0 0 0 0 0 0 0 0 0 0 0 0 0 0 0 127 0" result="hardAlpha"/>
<feOffset dy="2"/>
<feGaussianBlur stdDeviation="6"/>
<feComposite in2="hardAlpha" operator="out"/>
<feColorMatrix type="matrix" values="0 0 0 0 0 0 0 0 0 0.909804 0 0 0 0 0.65098 0 0 0 0.2 0"/>
<feBlend mode="normal" in2="BackgroundImageFix" result="effect1_dropShadow_2265_2231"/>
<feBlend mode="normal" in="SourceGraphic" in2="effect1_dropShadow_2265_2231" result="shape"/>
</filter>
<filter id="filter1_d_2265_2231" x="104.5" y="0" width="88" height="88" filterUnits="userSpaceOnUse" color-interpolation-filters="sRGB">
<feFlood flood-opacity="0" result="BackgroundImageFix"/>
<feColorMatrix in="SourceAlpha" type="matrix" values="0 0 0 0 0 0 0 0 0 0 0 0 0 0 0 0 0 0 127 0" result="hardAlpha"/>
<feOffset dy="2"/>
<feGaussianBlur stdDeviation="6"/>
<feComposite in2="hardAlpha" operator="out"/>
<feColorMatrix type="matrix" values="0 0 0 0 0.572549 0 0 0 0 0.235294 0 0 0 0 0.968627 0 0 0 0.3 0"/>
<feBlend mode="normal" in2="BackgroundImageFix" result="effect1_dropShadow_2265_2231"/>
<feBlend mode="normal" in="SourceGraphic" in2="effect1_dropShadow_2265_2231" result="shape"/>
</filter>
<radialGradient id="paint0_radial_2265_2231" cx="0" cy="0" r="1" gradientUnits="userSpaceOnUse" gradientTransform="translate(12.5 10) rotate(90) scale(64)">
<stop stop-color="#009873"/>
<stop offset="1" stop-color="#00382D"/>
</radialGradient>
<radialGradient id="paint1_radial_2265_2231" cx="0" cy="0" r="1" gradientUnits="userSpaceOnUse" gradientTransform="translate(116.5 10) rotate(90) scale(64)">
<stop stop-color="#923CF7"/>
<stop offset="1" stop-opacity="0.4"/>
</radialGradient>
<clipPath id="clip0_2265_2231">
<rect width="33" height="33" fill="white" transform="translate(132 25)"/>
</clipPath>
</defs>
</svg>
