<svg width="197" height="88" viewBox="0 0 197 88" fill="none" xmlns="http://www.w3.org/2000/svg">
<g filter="url(#filter0_d_2265_2231)">
<circle cx="44" cy="42" r="31.5" fill="#00382D" stroke="url(#paint0_radial_2265_2231)"/>
<path d="M56.8417 32.5938H29.8237C28.3591 32.5938 27.1719 33.781 27.1719 35.2456V51.4897C27.1719 52.9543 28.3591 54.1415 29.8237 54.1415H56.8417C58.3063 54.1415 59.4935 52.9543 59.4935 51.4897V35.2456C59.4935 33.781 58.3063 32.5938 56.8417 32.5938Z" stroke="#00FFB9" stroke-width="1.5" stroke-miterlimit="10" stroke-linecap="round" stroke-linejoin="round"/>
<path d="M56.6967 43.2266H47.3594" stroke="#00FFB9" stroke-width="1.5" stroke-miterlimit="10" stroke-linecap="round" stroke-linejoin="round"/>
<path d="M56.7563 32.5112C56.7563 31.0459 55.5683 29.8594 54.1045 29.8594H29.8159C28.3521 29.8594 27.1641 31.0474 27.1641 32.5112V35.1745" stroke="#00FFB9" stroke-width="1.5" stroke-miterlimit="10" stroke-linecap="round" stroke-linejoin="round"/>
</g>
<path d="M102.109 48.6432H103.934C107.583 48.6432 110.58 45.6586 110.58 41.9974C110.58 38.3482 107.595 35.3516 103.934 35.3516H102.109" stroke="#737373" stroke-width="1.5" stroke-linecap="round" stroke-linejoin="round"/>
<path d="M94.8724 35.3516H93.0599C89.3986 35.3516 86.4141 38.3361 86.4141 41.9974C86.4141 45.6466 89.3986 48.6432 93.0599 48.6432H94.8724" stroke="#737373" stroke-width="1.5" stroke-linecap="round" stroke-linejoin="round"/>
<path d="M93.6641 42H103.331" stroke="#737373" stroke-width="1.5" stroke-linecap="round" stroke-linejoin="round"/>
<g filter="url(#filter1_d_2265_2231)">
<circle cx="153" cy="42" r="31.5" fill="black" stroke="url(#paint1_radial_2265_2231)"/>
<g clip-path="url(#clip0_2265_2231)">
<path d="M164.004 25H147.496C144.461 25 142 27.4651 142 30.5047H164.004V52.4917C167.039 52.4917 169.5 50.0266 169.5 46.9869V25H164.004Z" fill="#923CF7"/>
<path d="M141.996 30.5078C138.961 30.5078 136.5 33.3963 136.5 36.4395V58.0031H158.504C161.539 58.0031 164 55.538 164 52.4984H141.996V30.5078Z" fill="#923CF7"/>
</g>
</g>
<defs>
<filter id="filter0_d_2265_2231" x="0" y="0" width="88" height="88" filterUnits="userSpaceOnUse" color-interpolation-filters="sRGB">
<feFlood flood-opacity="0" result="BackgroundImageFix"/>
<feColorMatrix in="SourceAlpha" type="matrix" values="0 0 0 0 0 0 0 0 0 0 0 0 0 0 0 0 0 0 127 0" result="hardAlpha"/>
<feOffset dy="2"/>
<feGaussianBlur stdDeviation="6"/>
<feComposite in2="hardAlpha" operator="out"/>
<feColorMatrix type="matrix" values="0 0 0 0 0 0 0 0 0 0.909804 0 0 0 0 0.65098 0 0 0 0.2 0"/>
<feBlend mode="normal" in2="BackgroundImageFix" result="effect1_dropShadow_2265_2231"/>
<feBlend mode="normal" in="SourceGraphic" in2="effect1_dropShadow_2265_2231" result="shape"/>
</filter>
<filter id="filter1_d_2265_2231" x="109" y="0" width="88" height="88" filterUnits="userSpaceOnUse" color-interpolation-filters="sRGB">
<feFlood flood-opacity="0" result="BackgroundImageFix"/>
<feColorMatrix in="SourceAlpha" type="matrix" values="0 0 0 0 0 0 0 0 0 0 0 0 0 0 0 0 0 0 127 0" result="hardAlpha"/>
<feOffset dy="2"/>
<feGaussianBlur stdDeviation="6"/>
<feComposite in2="hardAlpha" operator="out"/>
<feColorMatrix type="matrix" values="0 0 0 0 0.572549 0 0 0 0 0.235294 0 0 0 0 0.968627 0 0 0 0.6 0"/>
<feBlend mode="normal" in2="BackgroundImageFix" result="effect1_dropShadow_2265_2231"/>
<feBlend mode="normal" in="SourceGraphic" in2="effect1_dropShadow_2265_2231" result="shape"/>
</filter>
<radialGradient id="paint0_radial_2265_2231" cx="0" cy="0" r="1" gradientUnits="userSpaceOnUse" gradientTransform="translate(12 10) rotate(90) scale(64)">
<stop stop-color="#009873"/>
<stop offset="1" stop-color="#00382D"/>
</radialGradient>
<radialGradient id="paint1_radial_2265_2231" cx="0" cy="0" r="1" gradientUnits="userSpaceOnUse" gradientTransform="translate(121 10) rotate(90) scale(64)">
<stop stop-color="#923CF7"/>
<stop offset="1" stop-opacity="0.4"/>
</radialGradient>
<clipPath id="clip0_2265_2231">
<rect width="33" height="33" fill="white" transform="translate(136.5 25)"/>
</clipPath>
</defs>
</svg>
