<svg width="30" height="30" viewBox="0 0 30 30" fill="none" xmlns="http://www.w3.org/2000/svg">
<circle cx="15" cy="15" r="15" fill="white"/>
<g clip-path="url(#clip0_2125_19676)">
<path d="M24.2333 14.3435V11.2447H20.9597V9.91905L20.972 8.25H17.7896V18.3882C17.7896 18.7957 17.8716 19.1991 18.0308 19.5755C18.1901 19.9519 18.4235 20.2937 18.7177 20.5816C19.0119 20.8694 19.3611 21.0975 19.7454 21.2529C20.1296 21.4083 20.5414 21.4878 20.957 21.487L24.2333 21.4819V18.4339H21.779C21.6703 18.434 21.5627 18.4131 21.4623 18.3724C21.3618 18.3317 21.2706 18.2719 21.1938 18.1966C21.1169 18.1213 21.056 18.0319 21.0145 17.9335C20.973 17.835 20.9516 17.7295 20.9518 17.623V16.4179H20.9605C20.9605 15.7293 20.9605 15.0407 20.9605 14.3409L24.2333 14.3435Z" fill="#FF4205"/>
<path d="M14.2172 11.2447H16.7023V8.25H13.5411V21.4931H16.7023V13.7003C16.7023 13.3955 16.562 13.1069 16.3204 12.9151L14.2172 11.2447Z" fill="#FF4205"/>
<path d="M8.88003 17.623V8.25H5.71875V18.3882C5.71875 18.7957 5.80072 19.1991 5.95997 19.5755C6.11923 19.9519 6.35264 20.2937 6.64684 20.5816C6.94104 20.8694 7.29026 21.0975 7.67452 21.2529C8.05877 21.4083 8.47051 21.4878 8.88617 21.487L12.447 21.4819V18.4339H9.70723C9.48784 18.4339 9.27745 18.3484 9.1223 18.1964C8.96719 18.0443 8.88003 17.8381 8.88003 17.623Z" fill="#FF4205"/>
</g>
<defs>
<clipPath id="clip0_2125_19676">
<rect width="18.5625" height="13.5" fill="white" transform="translate(5.71875 8.25)"/>
</clipPath>
</defs>
</svg>
