<svg width="51" height="17" viewBox="0 0 51 17" fill="none" xmlns="http://www.w3.org/2000/svg">
<g clip-path="url(#clip0_2136_16671)">
<path d="M12.4174 4.02637H4.38461V12.0405H12.4174V4.02637Z" fill="#737373"/>
<path d="M4.38801 0L0.375 4.01301V16.0537H12.4157L16.4287 12.0407V0H4.38801ZM14.4231 4.02658V10.0351C14.4231 11.1431 13.5238 12.0424 12.4157 12.0424C12.4157 13.1505 11.5164 14.0498 10.4084 14.0498H2.37726V6.19004C2.37726 5.08201 3.27658 4.02828 4.38461 4.02828C4.38461 2.92025 5.28394 2.02093 6.39197 2.02093H14.4248V4.02828L14.4231 4.02658Z" fill="#737373"/>
<path d="M21.9977 5.99658H20.4519V13.3659H21.9977V5.99658Z" fill="#737373"/>
<path d="M40.5119 4.2725C40.0401 3.77533 39.4853 3.38166 38.8642 3.09999C38.2432 2.81832 37.5662 2.67578 36.8569 2.67578C36.1476 2.67578 35.4774 2.81832 34.8563 3.09999C34.2353 3.37997 33.6804 3.77533 33.2087 4.2725C32.737 4.76967 32.362 5.35169 32.0939 6.00497C31.8258 6.65825 31.69 7.36752 31.69 8.11243C31.69 8.85734 31.8258 9.56662 32.0939 10.2199C32.362 10.8732 32.737 11.4569 33.2087 11.9524C33.6804 12.4495 34.2353 12.8432 34.8563 13.1249C35.4774 13.4065 36.151 13.5491 36.8569 13.5491C37.5628 13.5491 38.2432 13.4065 38.8642 13.1249C39.4853 12.8449 40.0401 12.4495 40.5119 11.9524C40.9836 11.4552 41.3586 10.8732 41.6233 10.2182C41.8897 9.56492 42.0237 8.85564 42.0237 8.11074C42.0237 7.36583 41.8897 6.65655 41.6233 6.00327C41.3569 5.34999 40.9836 4.76628 40.5119 4.26911V4.2725ZM40.147 9.59037C39.9621 10.0502 39.7042 10.4608 39.3767 10.8121C39.0492 11.1633 38.6674 11.4433 38.2398 11.6452C37.8122 11.8472 37.3473 11.949 36.8569 11.949C36.3665 11.949 35.8999 11.8489 35.474 11.6486C35.0464 11.4501 34.6646 11.1701 34.3371 10.8189C34.0096 10.4676 33.7517 10.057 33.5667 9.59716C33.3818 9.13732 33.2884 8.63845 33.2884 8.11243C33.2884 7.58641 33.3818 7.09433 33.5667 6.63449C33.7517 6.17465 34.0096 5.76402 34.3371 5.41277C34.6629 5.06153 35.0464 4.78155 35.474 4.57963C35.9016 4.3777 36.3665 4.27589 36.8569 4.27589C37.3473 4.27589 37.8139 4.37601 38.2398 4.57623C38.6674 4.77476 39.0492 5.05474 39.3767 5.40598C39.7042 5.75723 39.9621 6.16956 40.147 6.63279C40.332 7.09433 40.4253 7.5932 40.4253 8.11413C40.4253 8.63506 40.332 9.13223 40.147 9.59207V9.59037Z" fill="#737373"/>
<path d="M21.9977 3.17627H20.4519V4.72208H21.9977V3.17627Z" fill="#737373"/>
<path d="M29.0074 7.15915C28.7817 6.83167 28.4915 6.56017 28.1454 6.35146C27.8603 6.18008 27.5345 6.07318 27.1748 6.03076C27.0577 6.01719 26.9389 6.0104 26.8151 6.0104C26.2975 6.0104 25.8054 6.10882 25.3524 6.30395C24.901 6.49909 24.4972 6.77228 24.1527 7.11673C23.8083 7.46119 23.5351 7.86673 23.3399 8.32148C23.1448 8.77624 23.0464 9.26832 23.0464 9.78755C23.0464 9.90802 23.0515 10.0268 23.0634 10.1456C23.099 10.5342 23.1906 10.9041 23.3399 11.2502C23.5351 11.7016 23.8083 12.1054 24.1527 12.4499C24.4972 12.7943 24.901 13.0692 25.3524 13.2627C25.8037 13.4578 26.2958 13.5562 26.8151 13.5562C27.3343 13.5562 27.7687 13.4408 28.1454 13.2135C28.4915 13.0047 28.7817 12.7316 29.0074 12.399V13.3713H30.5481V2.65576L29.0074 4.19649V7.15915ZM28.6222 10.938C28.4525 11.2825 28.2115 11.559 27.9044 11.761C27.599 11.9629 27.2359 12.0647 26.8269 12.0647C26.418 12.0647 26.0634 11.9629 25.7308 11.7593C25.3982 11.5573 25.1267 11.2808 24.9248 10.938C24.7229 10.5969 24.6194 10.2084 24.6194 9.78415C24.6194 9.35995 24.7195 8.97816 24.918 8.6337C25.1165 8.28925 25.3846 8.01096 25.7172 7.80565C26.0498 7.60033 26.4231 7.49682 26.8269 7.49682C27.2308 7.49682 27.5973 7.59863 27.901 7.80056C28.2048 8.00248 28.4474 8.27906 28.6188 8.62352C28.7919 8.96798 28.8784 9.35825 28.8784 9.78246C28.8784 10.2067 28.7919 10.5901 28.6222 10.9346V10.938Z" fill="#737373"/>
<path d="M47.6708 7.33521C47.4282 7.26225 47.1668 7.19268 46.8835 7.1265C46.7885 7.10444 46.6985 7.08069 46.6103 7.05863C45.9994 6.90252 45.2206 6.72944 44.7692 6.24584C44.362 5.80806 44.3857 5.15308 44.7014 4.67118C45.0933 4.0722 45.8348 3.9144 46.5102 3.9144C47.7183 3.9144 48.3444 4.43872 48.6584 5.01055L49.7206 3.94833C49.1216 3.20342 48.1103 2.66553 46.5747 2.66553C44.0073 2.66553 42.9282 4.0756 42.9282 5.53657C42.9282 6.75489 43.4101 7.57786 45.4395 8.22944C45.7381 8.32616 46.0707 8.41779 46.4389 8.50772C46.4559 8.51112 46.4711 8.51621 46.4881 8.5196C47.1906 8.69098 48.0407 8.87933 48.5871 9.39177C48.9757 9.75659 49.086 10.3318 48.9943 10.8443C48.8111 11.8759 47.6403 12.1882 46.7392 12.1882C45.4429 12.1882 44.608 11.7419 44.2076 10.8001L43.0792 11.9285C43.7325 12.9263 44.9135 13.5524 46.6934 13.5524C49.1487 13.5524 50.6233 12.2764 50.6233 10.4336C50.6233 9.02695 50.0769 8.05467 47.6691 7.3386L47.6708 7.33521Z" fill="#737373"/>
</g>
<defs>
<clipPath id="clip0_2136_16671">
<rect width="50.25" height="16.0554" fill="white" transform="translate(0.375)"/>
</clipPath>
</defs>
</svg>
